<?xml version='1.0' encoding='UTF-8'?>
<svg xmlns="http://www.w3.org/2000/svg" version="1.1" viewBox="0 0 1024 1024" width="2048px" height="2048px">
  <regionJson>{"230000":{"name":"Palos Solar Array","location":[207.15,-683.21],"badge":{"size":11.2},"facility_id":230000,"facility_type":6,"linked_facilities":[258000]},"231000":{"name":"Crystal Ridge Comm Array","location":[304.35,-700.92],"badge":{"size":11.2},"facility_id":231000,"facility_type":6,"linked_facilities":[230000,232000,253000,258000]},"232000":{"name":"Haven Outpost","location":[426.03,-795.17],"badge":{"size":11.2},"facility_id":232000,"facility_type":6,"linked_facilities":[255010,258000]},"233000":{"name":"Aurora Materials Lab","location":[449.31,-690.95],"badge":{"size":11.2},"facility_id":233000,"facility_type":6,"linked_facilities":[]},"234000":{"name":"Mani Containment Site","location":[563.23,-649.41],"badge":{"size":16},"facility_id":234000,"facility_type":11,"linked_facilities":[235000,244620,255030]},"235000":{"name":"Stillwater Watch","location":[658.81,-745.95],"badge":{"size":11.2},"facility_id":235000,"facility_type":9,"linked_facilities":[247000,400315]},"236000":{"name":"Grey Heron Shipping","location":[747.45,-626.43],"badge":{"size":13.6},"facility_id":236000,"facility_type":5,"linked_facilities":[]},"237000":{"name":"The Traverse","location":[343.27,-550.92],"badge":{"size":11.2},"facility_id":237000,"facility_type":6,"linked_facilities":[246000]},"239000":{"name":"Pale Canyon Chemical","location":[378.01,-452.28],"badge":{"size":11.2},"facility_id":239000,"facility_type":6,"linked_facilities":[246000]},"240000":{"name":"Old Shore Checkpoint","location":[465.73,-298.01],"badge":{"size":11.2},"facility_id":240000,"facility_type":6,"linked_facilities":[244300,252010,259000]},"242000":{"name":"Eastwake Harborage","location":[866.82,-418.14],"badge":{"size":11.2},"facility_id":242000,"facility_type":6,"linked_facilities":[]},"243000":{"name":"Elli Forest Pass","location":[593.12,-273.96],"badge":{"size":11.2},"facility_id":243000,"facility_type":6,"linked_facilities":[252010,400328]},"244000":{"name":"Frostfall Overlook","location":[834.12,-359.97],"badge":{"size":11.2},"facility_id":244000,"facility_type":6,"linked_facilities":[242000,257000]},"245000":{"name":"Snowshear Fort","location":[260.51,-637.47],"badge":{"size":13.6},"facility_id":245000,"facility_type":5,"linked_facilities":[230000,237000,251010]},"246000":{"name":"Mattherson's Triumph","location":[413.85,-532.18],"badge":{"size":13.6},"facility_id":246000,"facility_type":5,"linked_facilities":[]},"247000":{"name":"Northpoint Ruins","location":[652.24,-838.54],"badge":{"size":11.2},"facility_id":247000,"facility_type":9,"linked_facilities":[]},"248000":{"name":"Saerro Listening Post","location":[585.84,-539.54],"badge":{"size":13.6},"facility_id":248000,"facility_type":5,"linked_facilities":[244610]},"249000":{"name":"Waterson's Redemption","location":[527.54,-425.98],"badge":{"size":13.6},"facility_id":249000,"facility_type":5,"linked_facilities":[]},"400326":{"name":"Andvari Containment Site","location":[200.75,-522.25],"badge":{"size":16},"facility_id":400326,"facility_type":11,"linked_facilities":[251010,251030,400134]},"253000":{"name":"Freyr","location":[384.38,-652.46],"badge":{"size":16},"facility_id":253000,"facility_type":2,"linked_facilities":[233000,237000]},"254000":{"name":"Eisa","location":[501.88,-520.84],"badge":{"size":16},"facility_id":254000,"facility_type":4,"linked_facilities":[244610,246000,248000,249000]},"256000":{"name":"Nott Communications","location":[757.54,-506.98],"badge":{"size":11.2},"facility_id":256000,"facility_type":6,"linked_facilities":[236000,242000,256030,260000]},"257000":{"name":"Ymir","location":[778.92,-267.75],"badge":{"size":11.2},"facility_id":257000,"facility_type":9,"linked_facilities":[]},"258000":{"name":"Esamir Northern Warpgate","location":[213.34,-793.33],"badge":{"size":16},"facility_id":258000,"facility_type":7,"linked_facilities":[]},"259000":{"name":"Esamir Southern Warpgate","location":[262.1,-213.6],"badge":{"size":16},"facility_id":259000,"facility_type":7,"linked_facilities":[]},"244100":{"name":"Echo Valley Substation","location":[577.54,-469.13],"badge":{"size":11.2},"facility_id":244100,"facility_type":6,"linked_facilities":[248000,249000]},"244200":{"name":"Bridge-ward","location":[513.24,-370.75],"badge":{"size":11.2},"facility_id":244200,"facility_type":6,"linked_facilities":[249000,252010]},"244300":{"name":"Frostbite Harbor","location":[394.56,-328.13],"badge":{"size":11.2},"facility_id":244300,"facility_type":6,"linked_facilities":[259000]},"244500":{"name":"Jaeger's Fist","location":[240.08,-407.05],"badge":{"size":11.2},"facility_id":244500,"facility_type":6,"linked_facilities":[251030,400134]},"244600":{"name":"Two Stone Beach","location":[239.29,-311.44],"badge":{"size":11.2},"facility_id":244600,"facility_type":6,"linked_facilities":[244300,244500,259000]},"260010":{"name":"Terran BL-4 Crash Site","location":[749.24,-364.33],"badge":{"size":13.6},"facility_id":260010,"facility_type":5,"linked_facilities":[400328]},"251010":{"name":"Andvari Barracks","location":[214.45,-569.31],"badge":{"size":11.2},"facility_id":251010,"facility_type":6,"linked_facilities":[]},"251030":{"name":"Andvari South Bank","location":[217.47,-468.35],"badge":{"size":11.2},"facility_id":251030,"facility_type":6,"linked_facilities":[]},"252010":{"name":"Elli Tower","location":[542.37,-295.63],"badge":{"size":11.2},"facility_id":252010,"facility_type":6,"linked_facilities":[]},"255010":{"name":"Steelshore Processing","location":[485.52,-814.03],"badge":{"size":11.2},"facility_id":255010,"facility_type":6,"linked_facilities":[255020]},"255020":{"name":"Steelshore Reconstruction","location":[550.07,-834.28],"badge":{"size":11.2},"facility_id":255020,"facility_type":6,"linked_facilities":[247000]},"255030":{"name":"Esper Research Station","location":[506.63,-744.6],"badge":{"size":11.2},"facility_id":255030,"facility_type":6,"linked_facilities":[233000,255020]},"260000":{"name":"Esamir Eastern Warpgate","location":[844.26,-541.24],"badge":{"size":16},"facility_id":260000,"facility_type":7,"linked_facilities":[236000,242000]},"256030":{"name":"Genudine Gardens","location":[680.5,-550.84],"badge":{"size":11.2},"facility_id":256030,"facility_type":6,"linked_facilities":[248000]},"244610":{"name":"Rime Analytics","location":[519.51,-602.39],"badge":{"size":11.2},"facility_id":244610,"facility_type":6,"linked_facilities":[233000,234000]},"244620":{"name":"The Rink","location":[635.27,-601.51],"badge":{"size":11.2},"facility_id":244620,"facility_type":6,"linked_facilities":[236000,248000]},"400133":{"name":"BL-4 Recovery Point","location":[720.87,-425.21],"badge":{"size":11.2},"facility_id":400133,"facility_type":9,"linked_facilities":[260010]},"400134":{"name":"Tapp Waystation","location":[293.01,-469.18],"badge":{"size":11.2},"facility_id":400134,"facility_type":9,"linked_facilities":[239000]},"400135":{"name":"Untapped Reservoir","location":[461.01,-606.64],"badge":{"size":11.2},"facility_id":400135,"facility_type":9,"linked_facilities":[244610,246000]},"400314":{"name":"Baldur","location":[442.04,-406.58],"badge":{"size":16},"facility_id":400314,"facility_type":2,"linked_facilities":[239000,244300,249000]},"400315":{"name":"Vidar Observation Site","location":[784.0,-679.76],"badge":{"size":11.2},"facility_id":400315,"facility_type":9,"linked_facilities":[236000]},"400327":{"name":"Ymir Containment Site","location":[706.54,-256.12],"badge":{"size":16},"facility_id":400327,"facility_type":11,"linked_facilities":[243000,257000,260010]},"400317":{"name":"Jord","location":[655.79,-456.97],"badge":{"size":16},"facility_id":400317,"facility_type":2,"linked_facilities":[244100,400133]},"400328":{"name":"Spral Oasis","location":[649.28,-330.17],"badge":{"size":11.2},"facility_id":400328,"facility_type":9,"linked_facilities":[]}}</regionJson>
  <style>.region-TR{stroke:#000;fill:#bc1212;fill-opacity:0.4;}.region-NC{stroke:#000;fill:#0064aa;fill-opacity:0.4;}.region-VS{stroke:#000;fill:#6e18a3;fill-opacity:0.4;}.region-NS{stroke:#000;fill:#718096;fill-opacity:0.4;}.region-NS-cutoff{stroke:#000;fill:#718096;fill-opacity:0.8;}.region-VS-cutoff{stroke:#000;fill:#2e153d;fill-opacity:0.8;}.region-NC-cutoff{stroke:#000;fill:#0f273f;fill-opacity:0.8;}.region-TR-cutoff{stroke:#000;fill:#3a0005;fill-opacity:0.8;}.link{stroke-width:0.66;}.link-NS{stroke:#928e99;opacity:0.6;}.link-VS{stroke:#ffb2ff;opacity:0.8;}.link-NC{stroke:#b0ffff;opacity:0.8;}.link-TR{stroke:#ffbfb2;opacity:0.8;}.link-warpgate{stroke:#928e99;opacity:0.8;stroke-dasharray:5 5;}.link-captureable{stroke:#eae690;opacity:0.8;stroke-dasharray:5 5;}.badge-TR{fill:#cd4d4d;}.badge-NC{fill:#408bbf;}.badge-VS{fill:#9252ba;}.badge-NS{fill:#94a0b0;}.bglink-NS,.bglink-VS,.bglink-NC,.bglink-TR{stroke:none;}.bglink-warpgate{stroke:#49474c;opacity:0.8;stroke-dasharray:5 5;stroke-dashoffset:5;}.bglink-captureable{stroke:#8b7251;opacity:0.8;stroke-dasharray:5 5;stroke-dashoffset:5;}text{font-family:sans-serif;text-anchor:middle;}.fgtext{fill:#FFF;}.bgtext{filter:blur(1px);}.bgtext-TR{fill:#bc1212;stroke:#bc1212;}.bgtext-NC{fill:#0064aa;stroke:#0064aa;}.bgtext-VS{fill:#6e18a3;stroke:#6e18a3;}.bgtext-NS{fill:#718096;stroke:#718096;}</style>
  <defs>
    <symbol id="facility-bg" width="100" height="100" viewBox="0 0 100 100">
      <circle stroke="white" cx="50" cy="50" r="47.5" stroke-width="5" />
    </symbol>
    <symbol id="amp-fg" stroke="white" fill="white" width="100" height="100" viewBox="0 0 100 100">
      <polygon points="55,18.75 31.25,55 50,55 45,81.25 68.75,45 50,45" />
    </symbol>
    <symbol id="bio-fg" stroke="white" fill="none" stroke-width="8.34" width="100" height="100" viewBox="0 0 100 100">
      <polygon stroke-linejoin="round" points="31.25,71.875 68.75,71.875 50,34.375 31.25,71.875" />
      <polygon stroke-linejoin="round" stroke-width="5" fill="white" points="50,34.375 40,25 60,25 50,34.375" />
    </symbol>
    <symbol id="tech-fg" stroke="white" stroke-width="5" fill="none" width="100" height="100" viewBox="0 0 100 100">
      <line x1="41.67" y1="33.34" x2="58.34" y2="33.34" />
      <line x1="41.67" y1="66.67" x2="58.34" y2="66.67" />
      <rect x="25" y="25" width="16.67" height="16.67" />
      <circle cx="66.67" cy="33.34" r="8.34" />
      <circle cx="66.67" cy="66.67" r="8.34" />
      <circle cx="33.34" cy="66.67" r="8.34" />
    </symbol>
    <symbol id="lg-outpost-fg" stroke="white" fill="none" stroke-width="12.5" width="100" height="100" viewBox="0 0 100 100">
      <polyline stroke-width="10" points="56.25,70 75,70 75,40.41 56.25,23.75  43.75,23.75 25,40.41 25,70 43.75,70" />
      <line x1="75" y1="40.41" x2="87.5" y2="40.41" />
      <line x1="25" y1="40.41" x2="12.5" y2="40.41" />
    </symbol>
    <symbol id="sm-outpost-fg" stroke="white" fill="none" stroke-width="10" width="100" height="100" viewBox="0 0 100 100">
      <polyline points="56.25,70 75,70 75,47.09 56.25,30.42  43.75,30.42 25,47.09 25,70 43.75,70" />
    </symbol>
    <symbol id="warpgate-fg" stroke="white" stroke-width="7.5" fill="none" width="100" height="100" viewBox="0 0 100 100">
      <path d="M 30 27.5 A 34 34 0 0 0 17.66 65.5 L 50 55 L 82.34 65.5 A 34 34 0 0 0 70 27.5" />--&gt;
            <polygon stroke="none" fill="white" points="44,65 48,15 52,15 56,65" />
    </symbol>
    <symbol id="interlink-fg" stroke="white" fill="white" stroke-width="3.89" stroke-linejoin="miter" width="100" height="100" viewBox="0 0 100 100">
      <path d="M 73.91 26.09 A 35 35 0 0 1 26.09 73.91 L 73.91 26.09 Z" />
      <line x1="50" y1="50" x2="33.5" y2="33.5" />
      <circle cx="33.5" cy="33.5" r="3.5" />
    </symbol>
    <symbol id="const-outpost-fg" stroke="white" fill="white" stroke-linejoin="miter" width="100" height="100" viewBox="0 0 100 100">
      <polygon points="50,50 67.5,67.5 50,85 32.5,67.5" />
      <polygon points="68.75,62.5 52.5,15 52.5,45" />
      <polygon points="31.25,62.5 47.5,15 47.5,45" />
    </symbol>
    <symbol id="relic-fg" stroke="none" fill="white" width="100" height="100" viewBox="0 0 100 100">
      <symbol transform="translate(31,-207)">
        <path d="m 19.2,259.49998 6.45,6.575 c 19.20799,-18.55137 9.930756,-30.50452 -1.65,-39.075 -0.01293,-5.56439 -0.01626,-4.33477 0,-10 24.182011,8.53501 8.72114,30.41876 -4.8,42.5 z" />
        <path d="m 36.5,245.24898 v -14.90014 l -1.491065,8.55723 z" />
        <path d="m 28.936341,270.7829 c 5.356109,4.97649 7.566694,14.48577 7.563658,25.4324 -17.765571,-19.83589 -54.138637,-42.73891 -22.5,-69.21532 v -10 c -29.537503,12.43876 0.736743,40.58974 14.936342,53.78292 z" />
        <path d="m 1.5,248.4942 v -16.49422 l 1.8707248,8.1169 z" />
        <path d="m 6.85,266.88 c -17.0819606,8.99477 12.1126814,18.7207 14.6500004,30.12 -3.628522,0.007 -6.368919,0.0649 -10.000001,0 -18.826505,-12.00459 -7.0338538,-13.42498 2.000001,-22 z" />
        <path d="m 1.5,273 v 13.56 l 4.84,-5.96 z" />
      </symbol>
      <rect x="19" y="45" width="4" height="30" />
      <rect fill-opacity="0.8" x="22.5" y="50" width="5" height="30" />
      <rect fill-opacity="0.7" x="25" y="35" width="3" height="7" />
      <rect x="81" y="40" width="4" height="35" />
      <rect fill-opacity="0.8" x="74" y="25" width="5" height="30" />
      <rect fill-opacity="0.65" x="74" y="63" width="5" height="8" />
    </symbol>
    <symbol id="containment-fg" stroke="white" fill="none" stroke-linejoin="miter" width="100" height="100" viewBox="0 0 100 100">
      <line stroke-width="3" x1="10" y1="54.17" x2="90" y2="54.17" />
      <polygon stroke="none" fill="white" points="37.5,50 62.5,50 50,28.35" />
      <polygon stroke-width="2.9" points="30,54.16 50,19.52 70,54.16" />
      <polygon stroke-width="2" points="37.5,62.5 62.5,62.5 50,84.15" />
    </symbol>
    <symbol id="trident-fg" stroke="white" stroke-width="7.5" fill="none" width="100" height="100" viewBox="0 0 100 100">
      <polygon stroke="none" fill="white" points="57.5,80 51,15 49,15 42.5,80" />
      <polyline points="36.77,41.8 28.6,66.95 50.0,82.5 71.4,66.95 63.23,41.8" />
      <polygon stroke="none" fill="white" points="33.20,40.8 40.33,43.1 42.5,36" />
      <polygon stroke="none" fill="white" points="66.8,40.8 59.67,43.1 57.5,36" />
      <polygon stroke="none" fill="white" points="50,55 60,65 50,75 40,65" />
    </symbol>
    <path d="M 224.38 288.22 L 211.88 295.44 L 199.38 288.22 L 186.88 295.44 L 174.38 288.22 L 161.88 295.44 L 161.88 309.88 L 149.38 317.09 L 149.38 331.53 L 136.88 338.75 L 136.88 353.19 L 124.38 360.41 L 124.38 374.84 L 136.88 382.06 L 149.38 374.84 L 161.88 382.06 L 174.38 374.84 L 186.88 382.06 L 199.38 374.84 L 211.88 382.06 L 224.38 374.84 L 224.38 360.41 L 236.88 353.19 L 249.38 360.41 L 261.88 353.19 L 261.88 338.75 L 249.38 331.53 L 249.38 317.09 L 236.88 309.88 L 236.88 295.44 Z" id="hex-230000" fill="rgb(61.96%,4.31%,5.88%)" fill-opacity="0.4" fill-rule="nonzero" stroke="rgb(0.00%,0.00%,0.00%)" stroke-opacity="0.8" stroke-linejoin="miter" stroke-linecap="butt" stroke-width="1.20" stroke-miterlimit="4.00" />
    <path d="M 207.15 340.79 L 213.34 230.67" id="link-230000-258000" fill="none" stroke-linejoin="miter" stroke-linecap="butt" stroke-miterlimit="4.00" />
    <text x="207.15" y="352.51" font-size="5" id="name-230000">
      <tspan text-anchor="middle" stroke-miterlimit="1.56">Palos Solar Array</tspan>
    </text>
    <path d="M 362.00 295.44 L 349.50 288.22 L 349.50 273.78 L 337.00 266.56 L 324.50 273.78 L 312.00 266.56 L 299.50 273.78 L 299.50 288.22 L 287.00 295.44 L 274.50 288.22 L 261.88 295.44 L 249.38 288.22 L 236.88 295.44 L 236.88 309.88 L 249.38 317.09 L 249.38 331.53 L 261.88 338.75 L 261.88 353.19 L 274.50 360.41 L 287.00 353.19 L 299.50 360.41 L 312.00 353.19 L 324.50 360.41 L 337.00 353.19 L 337.00 338.75 L 349.50 331.53 L 349.50 317.09 L 362.00 309.88 Z" id="hex-231000" fill="rgb(61.96%,4.31%,5.88%)" fill-opacity="0.4" fill-rule="nonzero" stroke="rgb(0.00%,0.00%,0.00%)" stroke-opacity="0.8" stroke-linejoin="miter" stroke-linecap="butt" stroke-width="1.20" stroke-miterlimit="4.00" />
    <path d="M 304.35 323.08 L 207.15 340.79" id="link-231000-230000" fill="none" stroke-linejoin="miter" stroke-linecap="butt" stroke-miterlimit="4.00" />
    <path d="M 304.35 323.08 L 426.03 228.83" id="link-231000-232000" fill="none" stroke-linejoin="miter" stroke-linecap="butt" stroke-miterlimit="4.00" />
    <path d="M 304.35 323.08 L 384.38 371.54" id="link-231000-253000" fill="none" stroke-linejoin="miter" stroke-linecap="butt" stroke-miterlimit="4.00" />
    <path d="M 304.35 323.08 L 213.34 230.67" id="link-231000-258000" fill="none" stroke-linejoin="miter" stroke-linecap="butt" stroke-miterlimit="4.00" />
    <text x="304.35" y="334.80" font-size="5" id="name-231000">
      <tspan text-anchor="middle" stroke-miterlimit="1.56">Crystal Ridge Comm Array</tspan>
    </text>
    <path d="M 474.50 244.91 L 474.50 230.47 L 462.00 223.25 L 462.00 208.81 L 449.50 201.59 L 449.50 187.16 L 437.00 179.94 L 424.50 187.16 L 412.00 179.94 L 399.50 187.16 L 387.00 179.94 L 374.50 187.16 L 362.00 179.94 L 349.50 187.16 L 349.50 201.59 L 337.00 208.81 L 337.00 223.25 L 324.50 230.47 L 324.50 244.91 L 312.00 252.12 L 312.00 266.56 L 324.50 273.78 L 337.00 266.56 L 349.50 273.78 L 349.50 288.22 L 362.00 295.44 L 374.50 288.22 L 387.00 295.44 L 399.50 288.22 L 412.00 295.44 L 424.50 288.22 L 437.00 295.44 L 449.50 288.22 L 449.50 273.78 L 462.00 266.56 L 462.00 252.12 Z" id="hex-232000" fill="rgb(61.96%,4.31%,5.88%)" fill-opacity="0.4" fill-rule="nonzero" stroke="rgb(0.00%,0.00%,0.00%)" stroke-opacity="0.8" stroke-linejoin="miter" stroke-linecap="butt" stroke-width="1.20" stroke-miterlimit="4.00" />
    <path d="M 426.03 228.83 L 485.52 209.97" id="link-232000-255010" fill="none" stroke-linejoin="miter" stroke-linecap="butt" stroke-miterlimit="4.00" />
    <path d="M 426.03 228.83 L 213.34 230.67" id="link-232000-258000" fill="none" stroke-linejoin="miter" stroke-linecap="butt" stroke-miterlimit="4.00" />
    <text x="426.03" y="240.55" font-size="5" id="name-232000">
      <tspan text-anchor="middle" stroke-miterlimit="1.56">Haven Outpost</tspan>
    </text>
    <path d="M 474.50 288.22 L 474.50 273.78 L 462.00 266.56 L 449.50 273.78 L 449.50 288.22 L 437.00 295.44 L 437.00 309.88 L 424.50 317.09 L 424.50 331.53 L 437.00 338.75 L 437.00 353.19 L 449.50 360.41 L 462.00 353.19 L 474.50 360.41 L 487.00 353.19 L 499.50 360.41 L 512.00 353.19 L 512.00 338.75 L 499.50 331.53 L 499.50 317.09 L 487.00 309.88 L 487.00 295.44 Z" id="hex-233000" fill="rgb(61.96%,4.31%,5.88%)" fill-opacity="0.4" fill-rule="nonzero" stroke="rgb(0.00%,0.00%,0.00%)" stroke-opacity="0.8" stroke-linejoin="miter" stroke-linecap="butt" stroke-width="1.20" stroke-miterlimit="4.00" />
    <text x="449.31" y="344.77" font-size="5" id="name-233000">
      <tspan text-anchor="middle" stroke-miterlimit="1.56">Aurora Materials Lab</tspan>
    </text>
    <path d="M 512.00 338.75 L 512.00 353.19 L 524.50 360.41 L 524.50 374.84 L 537.00 382.06 L 537.00 396.50 L 549.50 403.72 L 549.50 418.16 L 562.00 425.38 L 562.00 439.81 L 574.50 447.03 L 587.00 439.81 L 587.00 425.38 L 599.50 418.16 L 599.50 403.72 L 612.00 396.50 L 612.00 382.06 L 624.50 374.84 L 624.50 360.41 L 637.00 353.19 L 637.00 338.75 L 624.50 331.53 L 624.50 317.09 L 612.00 309.88 L 612.00 295.44 L 599.50 288.22 L 599.50 273.78 L 587.00 266.56 L 574.50 273.78 L 562.00 266.56 L 549.50 273.78 L 549.50 288.22 L 562.00 295.44 L 562.00 309.88 L 549.50 317.09 L 537.00 309.88 L 524.50 317.09 L 512.00 309.88 L 499.50 317.09 L 499.50 331.53 Z" id="hex-234000" fill="rgb(61.96%,4.31%,5.88%)" fill-opacity="0.4" fill-rule="nonzero" stroke="rgb(0.00%,0.00%,0.00%)" stroke-opacity="0.8" stroke-linejoin="miter" stroke-linecap="butt" stroke-width="1.20" stroke-miterlimit="4.00" />
    <path d="M 563.23 374.59 L 658.81 278.05" id="link-234000-235000" fill="none" stroke-linejoin="miter" stroke-linecap="butt" stroke-miterlimit="4.00" />
    <path d="M 563.23 374.59 L 635.27 422.49" id="link-234000-244620" fill="none" stroke-linejoin="miter" stroke-linecap="butt" stroke-miterlimit="4.00" />
    <path d="M 563.23 374.59 L 506.63 279.40" id="link-234000-255030" fill="none" stroke-linejoin="miter" stroke-linecap="butt" stroke-miterlimit="4.00" />
    <text x="563.23" y="394.19" font-size="10" id="name-234000">
      <tspan text-anchor="middle" stroke-miterlimit="1.56">Mani Containment Site</tspan>
    </text>
    <path d="M 649.50 360.41 L 662.00 353.19 L 674.50 360.41 L 687.00 353.19 L 687.00 338.75 L 699.50 331.53 L 712.00 338.75 L 724.50 331.53 L 724.50 317.09 L 737.00 309.88 L 737.00 295.44 L 724.50 288.22 L 724.50 273.78 L 712.00 266.56 L 712.00 252.12 L 699.50 244.91 L 699.50 230.47 L 687.00 223.25 L 674.50 230.47 L 662.00 223.25 L 649.50 230.47 L 637.00 223.25 L 624.50 230.47 L 612.00 223.25 L 599.50 230.47 L 599.50 244.91 L 612.00 252.12 L 612.00 266.56 L 599.50 273.78 L 599.50 288.22 L 612.00 295.44 L 612.00 309.88 L 624.50 317.09 L 624.50 331.53 L 637.00 338.75 L 637.00 353.19 Z" id="hex-235000" fill="rgb(61.96%,4.31%,5.88%)" fill-opacity="0.4" fill-rule="nonzero" stroke="rgb(0.00%,0.00%,0.00%)" stroke-opacity="0.8" stroke-linejoin="miter" stroke-linecap="butt" stroke-width="1.20" stroke-miterlimit="4.00" />
    <path d="M 658.81 278.05 L 652.24 185.46" id="link-235000-247000" fill="none" stroke-linejoin="miter" stroke-linecap="butt" stroke-miterlimit="4.00" />
    <path d="M 658.81 278.05 L 784.00 344.24" id="link-235000-400315" fill="none" stroke-linejoin="miter" stroke-linecap="butt" stroke-miterlimit="4.00" />
    <text x="658.81" y="289.77" font-size="5" id="name-235000">
      <tspan text-anchor="middle" stroke-miterlimit="1.56">Stillwater Watch</tspan>
    </text>
    <path d="M 749.50 374.84 L 737.00 382.06 L 724.50 374.84 L 712.00 382.06 L 699.50 374.84 L 687.00 382.06 L 687.00 396.50 L 699.50 403.72 L 699.50 418.16 L 712.00 425.38 L 712.00 439.81 L 724.50 447.03 L 737.00 439.81 L 749.50 447.03 L 762.12 439.81 L 774.62 447.03 L 787.12 439.81 L 787.12 425.38 L 799.62 418.16 L 812.12 425.38 L 824.62 418.16 L 824.62 403.72 L 812.12 396.50 L 812.12 382.06 L 799.62 374.84 L 787.12 382.06 L 774.62 374.84 L 762.12 382.06 Z" id="hex-236000" fill="rgb(61.96%,4.31%,5.88%)" fill-opacity="0.4" fill-rule="nonzero" stroke="rgb(0.00%,0.00%,0.00%)" stroke-opacity="0.8" stroke-linejoin="miter" stroke-linecap="butt" stroke-width="1.20" stroke-miterlimit="4.00" />
    <text x="747.45" y="410.73" font-size="5" id="name-236000">
      <tspan text-anchor="middle" stroke-miterlimit="1.56">Grey Heron Shipping</tspan>
    </text>
    <path d="M 299.50 490.34 L 299.50 504.78 L 312.00 512.00 L 324.50 504.78 L 337.00 512.00 L 337.00 526.44 L 349.50 533.66 L 362.00 526.44 L 362.00 512.00 L 374.50 504.78 L 374.50 490.34 L 387.00 483.12 L 387.00 468.69 L 374.50 461.47 L 374.50 447.03 L 362.00 439.81 L 362.00 425.38 L 349.50 418.16 L 337.00 425.38 L 324.50 418.16 L 312.00 425.38 L 312.00 439.81 L 299.50 447.03 L 299.50 461.47 L 287.00 468.69 L 287.00 483.12 Z" id="hex-237000" fill="rgb(61.96%,4.31%,5.88%)" fill-opacity="0.4" fill-rule="nonzero" stroke="rgb(0.00%,0.00%,0.00%)" stroke-opacity="0.8" stroke-linejoin="miter" stroke-linecap="butt" stroke-width="1.20" stroke-miterlimit="4.00" />
    <path d="M 343.27 473.08 L 413.85 491.82" id="link-237000-246000" fill="none" stroke-linejoin="miter" stroke-linecap="butt" stroke-miterlimit="4.00" />
    <text x="343.27" y="484.80" font-size="5" id="name-237000">
      <tspan text-anchor="middle" stroke-miterlimit="1.56">The Traverse</tspan>
    </text>
    <path d="M 349.50 591.41 L 362.00 598.62 L 362.00 613.06 L 349.50 620.28 L 349.50 634.72 L 362.00 641.94 L 374.50 634.72 L 387.00 641.94 L 399.50 634.72 L 399.50 620.28 L 412.00 613.06 L 412.00 598.62 L 424.50 591.41 L 424.50 576.97 L 437.00 569.75 L 437.00 555.31 L 424.50 548.09 L 424.50 533.66 L 412.00 526.44 L 399.50 533.66 L 387.00 526.44 L 374.50 533.66 L 362.00 526.44 L 349.50 533.66 L 349.50 548.09 L 337.00 555.31 L 337.00 569.75 L 349.50 576.97 Z" id="hex-239000" fill="rgb(61.96%,4.31%,5.88%)" fill-opacity="0.4" fill-rule="nonzero" stroke="rgb(0.00%,0.00%,0.00%)" stroke-opacity="0.8" stroke-linejoin="miter" stroke-linecap="butt" stroke-width="1.20" stroke-miterlimit="4.00" />
    <path d="M 378.01 571.72 L 413.85 491.82" id="link-239000-246000" fill="none" stroke-linejoin="miter" stroke-linecap="butt" stroke-miterlimit="4.00" />
    <text x="378.01" y="583.44" font-size="5" id="name-239000">
      <tspan text-anchor="middle" stroke-miterlimit="1.56">Pale Canyon Chemical</tspan>
    </text>
    <path d="M 374.50 721.34 L 362.00 728.56 L 362.00 743.00 L 349.50 750.22 L 349.50 764.66 L 362.00 771.88 L 362.00 786.31 L 374.50 793.53 L 374.50 807.97 L 387.00 815.19 L 399.50 807.97 L 412.00 815.19 L 424.50 807.97 L 437.00 815.19 L 449.50 807.97 L 462.00 815.19 L 474.50 807.97 L 487.00 815.19 L 499.50 807.97 L 499.50 793.53 L 487.00 786.31 L 487.00 771.88 L 499.50 764.66 L 499.50 750.22 L 512.00 743.00 L 512.00 728.56 L 499.50 721.34 L 499.50 706.91 L 512.00 699.69 L 512.00 685.25 L 499.50 678.03 L 487.00 685.25 L 474.50 678.03 L 462.00 685.25 L 462.00 699.69 L 449.50 706.91 L 449.50 721.34 L 437.00 728.56 L 424.50 721.34 L 412.00 728.56 L 399.50 721.34 L 387.00 728.56 Z" id="hex-240000" fill="rgb(61.96%,4.31%,5.88%)" fill-opacity="0.4" fill-rule="nonzero" stroke="rgb(0.00%,0.00%,0.00%)" stroke-opacity="0.8" stroke-linejoin="miter" stroke-linecap="butt" stroke-width="1.20" stroke-miterlimit="4.00" />
    <path d="M 465.73 725.99 L 394.56 695.87" id="link-240000-244300" fill="none" stroke-linejoin="miter" stroke-linecap="butt" stroke-miterlimit="4.00" />
    <path d="M 465.73 725.99 L 542.37 728.37" id="link-240000-252010" fill="none" stroke-linejoin="miter" stroke-linecap="butt" stroke-miterlimit="4.00" />
    <path d="M 465.73 725.99 L 262.10 810.40" id="link-240000-259000" fill="none" stroke-linejoin="miter" stroke-linecap="butt" stroke-miterlimit="4.00" />
    <text x="465.73" y="737.71" font-size="5" id="name-240000">
      <tspan text-anchor="middle" stroke-miterlimit="1.56">Old Shore Checkpoint</tspan>
    </text>
    <path d="M 849.62 634.72 L 862.12 641.94 L 874.62 634.72 L 887.12 641.94 L 899.62 634.72 L 899.62 620.28 L 887.12 613.06 L 887.12 598.62 L 899.62 591.41 L 899.62 576.97 L 887.12 569.75 L 887.12 555.31 L 874.62 548.09 L 862.12 555.31 L 849.62 548.09 L 837.12 555.31 L 824.62 548.09 L 812.12 555.31 L 799.62 548.09 L 787.12 555.31 L 774.62 548.09 L 762.12 555.31 L 762.12 569.75 L 774.62 576.97 L 774.62 591.41 L 787.12 598.62 L 787.12 613.06 L 774.62 620.28 L 774.62 634.72 L 787.12 641.94 L 799.62 634.72 L 812.12 641.94 L 824.62 634.72 L 837.12 641.94 Z" id="hex-242000" fill="rgb(61.96%,4.31%,5.88%)" fill-opacity="0.4" fill-rule="nonzero" stroke="rgb(0.00%,0.00%,0.00%)" stroke-opacity="0.8" stroke-linejoin="miter" stroke-linecap="butt" stroke-width="1.20" stroke-miterlimit="4.00" />
    <text x="866.82" y="617.58" font-size="5" id="name-242000">
      <tspan text-anchor="middle" stroke-miterlimit="1.56">Eastwake Harborage</tspan>
    </text>
    <path d="M 587.00 786.31 L 599.50 793.53 L 612.00 786.31 L 624.50 793.53 L 637.00 786.31 L 637.00 771.88 L 649.50 764.66 L 649.50 750.22 L 637.00 743.00 L 637.00 728.56 L 624.50 721.34 L 624.50 706.91 L 612.00 699.69 L 599.50 706.91 L 587.00 699.69 L 574.50 706.91 L 574.50 721.34 L 562.00 728.56 L 562.00 743.00 L 574.50 750.22 L 574.50 764.66 L 562.00 771.88 L 562.00 786.31 L 574.50 793.53 Z" id="hex-243000" fill="rgb(61.96%,4.31%,5.88%)" fill-opacity="0.4" fill-rule="nonzero" stroke="rgb(0.00%,0.00%,0.00%)" stroke-opacity="0.8" stroke-linejoin="miter" stroke-linecap="butt" stroke-width="1.20" stroke-miterlimit="4.00" />
    <path d="M 593.12 750.04 L 542.37 728.37" id="link-243000-252010" fill="none" stroke-linejoin="miter" stroke-linecap="butt" stroke-miterlimit="4.00" />
    <path d="M 593.12 750.04 L 649.28 693.83" id="link-243000-400328" fill="none" stroke-linejoin="miter" stroke-linecap="butt" stroke-miterlimit="4.00" />
    <text x="593.12" y="761.76" font-size="5" id="name-243000">
      <tspan text-anchor="middle" stroke-miterlimit="1.56">Elli Forest Pass</tspan>
    </text>
    <path d="M 874.62 706.91 L 887.12 699.69 L 887.12 685.25 L 899.62 678.03 L 899.62 663.59 L 912.12 656.38 L 912.12 641.94 L 899.62 634.72 L 887.12 641.94 L 874.62 634.72 L 862.12 641.94 L 849.62 634.72 L 837.12 641.94 L 824.62 634.72 L 812.12 641.94 L 799.62 634.72 L 787.12 641.94 L 787.12 656.38 L 799.62 663.59 L 799.62 678.03 L 787.12 685.25 L 787.12 699.69 L 799.62 706.91 L 799.62 721.34 L 812.12 728.56 L 812.12 743.00 L 824.62 750.22 L 837.12 743.00 L 849.62 750.22 L 862.12 743.00 L 862.12 728.56 L 874.62 721.34 Z" id="hex-244000" fill="rgb(61.96%,4.31%,5.88%)" fill-opacity="0.4" fill-rule="nonzero" stroke="rgb(0.00%,0.00%,0.00%)" stroke-opacity="0.8" stroke-linejoin="miter" stroke-linecap="butt" stroke-width="1.20" stroke-miterlimit="4.00" />
    <path d="M 834.12 664.03 L 866.82 605.86" id="link-244000-242000" fill="none" stroke-linejoin="miter" stroke-linecap="butt" stroke-miterlimit="4.00" />
    <path d="M 834.12 664.03 L 778.92 756.25" id="link-244000-257000" fill="none" stroke-linejoin="miter" stroke-linecap="butt" stroke-miterlimit="4.00" />
    <text x="834.12" y="675.75" font-size="5" id="name-244000">
      <tspan text-anchor="middle" stroke-miterlimit="1.56">Frostfall Overlook</tspan>
    </text>
    <path d="M 149.38 374.84 L 136.88 382.06 L 136.88 396.50 L 149.38 403.72 L 149.38 418.16 L 161.88 425.38 L 174.38 418.16 L 186.88 425.38 L 199.38 418.16 L 211.88 425.38 L 224.38 418.16 L 236.88 425.38 L 249.38 418.16 L 261.88 425.38 L 261.88 439.81 L 274.50 447.03 L 287.00 439.81 L 299.50 447.03 L 312.00 439.81 L 312.00 425.38 L 324.50 418.16 L 324.50 403.72 L 312.00 396.50 L 312.00 382.06 L 299.50 374.84 L 299.50 360.41 L 287.00 353.19 L 274.50 360.41 L 261.88 353.19 L 249.38 360.41 L 236.88 353.19 L 224.38 360.41 L 224.38 374.84 L 211.88 382.06 L 199.38 374.84 L 186.88 382.06 L 174.38 374.84 L 161.88 382.06 Z" id="hex-245000" fill="rgb(61.96%,4.31%,5.88%)" fill-opacity="0.4" fill-rule="nonzero" stroke="rgb(0.00%,0.00%,0.00%)" stroke-opacity="0.8" stroke-linejoin="miter" stroke-linecap="butt" stroke-width="1.20" stroke-miterlimit="4.00" />
    <path d="M 260.51 386.53 L 207.15 340.79" id="link-245000-230000" fill="none" stroke-linejoin="miter" stroke-linecap="butt" stroke-miterlimit="4.00" />
    <path d="M 260.51 386.53 L 343.27 473.08" id="link-245000-237000" fill="none" stroke-linejoin="miter" stroke-linecap="butt" stroke-miterlimit="4.00" />
    <path d="M 260.51 386.53 L 214.45 454.69" id="link-245000-251010" fill="none" stroke-linejoin="miter" stroke-linecap="butt" stroke-miterlimit="4.00" />
    <text x="260.51" y="399.69" font-size="5" id="name-245000">
      <tspan text-anchor="middle" stroke-miterlimit="1.56">Snowshear Fort</tspan>
    </text>
    <path d="M 374.50 461.47 L 387.00 468.69 L 387.00 483.12 L 374.50 490.34 L 374.50 504.78 L 362.00 512.00 L 362.00 526.44 L 374.50 533.66 L 387.00 526.44 L 399.50 533.66 L 412.00 526.44 L 424.50 533.66 L 424.50 548.09 L 437.00 555.31 L 449.50 548.09 L 449.50 533.66 L 462.00 526.44 L 462.00 512.00 L 449.50 504.78 L 449.50 490.34 L 462.00 483.12 L 462.00 468.69 L 449.50 461.47 L 437.00 468.69 L 424.50 461.47 L 424.50 447.03 L 412.00 439.81 L 399.50 447.03 L 387.00 439.81 L 374.50 447.03 Z" id="hex-246000" fill="rgb(61.96%,4.31%,5.88%)" fill-opacity="0.4" fill-rule="nonzero" stroke="rgb(0.00%,0.00%,0.00%)" stroke-opacity="0.8" stroke-linejoin="miter" stroke-linecap="butt" stroke-width="1.20" stroke-miterlimit="4.00" />
    <text x="413.85" y="504.98" font-size="5" id="name-246000">
      <tspan text-anchor="middle" stroke-miterlimit="1.56">Mattherson's Triumph</tspan>
    </text>
    <path d="M 699.50 230.47 L 712.00 223.25 L 712.00 208.81 L 724.50 201.59 L 724.50 187.16 L 712.00 179.94 L 712.00 165.50 L 724.50 158.28 L 724.50 143.84 L 712.00 136.62 L 699.50 143.84 L 687.00 136.62 L 674.50 143.84 L 662.00 136.62 L 649.50 143.84 L 637.00 136.62 L 624.50 143.84 L 612.00 136.62 L 599.50 143.84 L 599.50 158.28 L 587.00 165.50 L 587.00 179.94 L 599.50 187.16 L 599.50 201.59 L 612.00 208.81 L 612.00 223.25 L 624.50 230.47 L 637.00 223.25 L 649.50 230.47 L 662.00 223.25 L 674.50 230.47 L 687.00 223.25 Z" id="hex-247000" fill="rgb(61.96%,4.31%,5.88%)" fill-opacity="0.4" fill-rule="nonzero" stroke="rgb(0.00%,0.00%,0.00%)" stroke-opacity="0.8" stroke-linejoin="miter" stroke-linecap="butt" stroke-width="1.20" stroke-miterlimit="4.00" />
    <text x="652.24" y="197.18" font-size="5" id="name-247000">
      <tspan text-anchor="middle" stroke-miterlimit="1.56">Northpoint Ruins</tspan>
    </text>
    <path d="M 549.50 504.78 L 537.00 512.00 L 537.00 526.44 L 549.50 533.66 L 562.00 526.44 L 574.50 533.66 L 587.00 526.44 L 599.50 533.66 L 612.00 526.44 L 624.50 533.66 L 637.00 526.44 L 637.00 512.00 L 624.50 504.78 L 624.50 490.34 L 612.00 483.12 L 612.00 468.69 L 599.50 461.47 L 599.50 447.03 L 587.00 439.81 L 574.50 447.03 L 562.00 439.81 L 549.50 447.03 L 549.50 461.47 L 537.00 468.69 L 537.00 483.12 L 549.50 490.34 Z" id="hex-248000" fill="rgb(61.96%,4.31%,5.88%)" fill-opacity="0.4" fill-rule="nonzero" stroke="rgb(0.00%,0.00%,0.00%)" stroke-opacity="0.8" stroke-linejoin="miter" stroke-linecap="butt" stroke-width="1.20" stroke-miterlimit="4.00" />
    <path d="M 585.84 484.46 L 519.51 421.61" id="link-248000-244610" fill="none" stroke-linejoin="miter" stroke-linecap="butt" stroke-miterlimit="4.00" />
    <text x="585.84" y="497.62" font-size="5" id="name-248000">
      <tspan text-anchor="middle" stroke-miterlimit="1.56">Saerro Listening Post</tspan>
    </text>
    <path d="M 512.00 613.06 L 524.50 620.28 L 537.00 613.06 L 549.50 620.28 L 562.00 613.06 L 574.50 620.28 L 587.00 613.06 L 587.00 598.62 L 574.50 591.41 L 562.00 598.62 L 549.50 591.41 L 549.50 576.97 L 537.00 569.75 L 537.00 555.31 L 524.50 548.09 L 512.00 555.31 L 499.50 548.09 L 487.00 555.31 L 474.50 548.09 L 462.00 555.31 L 462.00 569.75 L 474.50 576.97 L 474.50 591.41 L 487.00 598.62 L 487.00 613.06 L 499.50 620.28 Z" id="hex-249000" fill="rgb(61.96%,4.31%,5.88%)" fill-opacity="0.4" fill-rule="nonzero" stroke="rgb(0.00%,0.00%,0.00%)" stroke-opacity="0.8" stroke-linejoin="miter" stroke-linecap="butt" stroke-width="1.20" stroke-miterlimit="4.00" />
    <text x="527.54" y="611.18" font-size="5" id="name-249000">
      <tspan text-anchor="middle" stroke-miterlimit="1.56">Waterson's Redemption</tspan>
    </text>
    <path d="M 111.88 468.69 L 111.88 483.12 L 99.38 490.34 L 99.38 504.78 L 111.88 512.00 L 111.88 526.44 L 124.38 533.66 L 136.88 526.44 L 149.38 533.66 L 161.88 526.44 L 174.38 533.66 L 186.88 526.44 L 199.38 533.66 L 211.88 526.44 L 224.38 533.66 L 236.88 526.44 L 249.38 533.66 L 261.88 526.44 L 261.88 512.00 L 249.38 504.78 L 249.38 490.34 L 236.88 483.12 L 236.88 468.69 L 224.38 461.47 L 211.88 468.69 L 199.38 461.47 L 186.88 468.69 L 174.38 461.47 L 161.88 468.69 L 149.38 461.47 L 136.88 468.69 L 124.38 461.47 Z" id="hex-400326" fill="rgb(61.96%,4.31%,5.88%)" fill-opacity="0.4" fill-rule="nonzero" stroke="rgb(0.00%,0.00%,0.00%)" stroke-opacity="0.8" stroke-linejoin="miter" stroke-linecap="butt" stroke-width="1.20" stroke-miterlimit="4.00" />
    <path d="M 200.75 501.75 L 214.45 454.69" id="link-400326-251010" fill="none" stroke-linejoin="miter" stroke-linecap="butt" stroke-miterlimit="4.00" />
    <path d="M 200.75 501.75 L 217.47 555.65" id="link-400326-251030" fill="none" stroke-linejoin="miter" stroke-linecap="butt" stroke-miterlimit="4.00" />
    <path d="M 200.75 501.75 L 293.01 554.82" id="link-400326-400134" fill="none" stroke-linejoin="miter" stroke-linecap="butt" stroke-miterlimit="4.00" />
    <text x="200.75" y="521.35" font-size="10" id="name-400326">
      <tspan text-anchor="middle" stroke-miterlimit="1.56">Andvari Containment Site</tspan>
    </text>
    <path d="M 324.50 360.41 L 312.00 353.19 L 299.50 360.41 L 299.50 374.84 L 312.00 382.06 L 312.00 396.50 L 324.50 403.72 L 324.50 418.16 L 337.00 425.38 L 349.50 418.16 L 362.00 425.38 L 362.00 439.81 L 374.50 447.03 L 387.00 439.81 L 399.50 447.03 L 412.00 439.81 L 412.00 425.38 L 424.50 418.16 L 424.50 403.72 L 437.00 396.50 L 449.50 403.72 L 462.00 396.50 L 462.00 382.06 L 474.50 374.84 L 474.50 360.41 L 462.00 353.19 L 449.50 360.41 L 437.00 353.19 L 437.00 338.75 L 424.50 331.53 L 424.50 317.09 L 437.00 309.88 L 437.00 295.44 L 424.50 288.22 L 412.00 295.44 L 399.50 288.22 L 387.00 295.44 L 374.50 288.22 L 362.00 295.44 L 362.00 309.88 L 349.50 317.09 L 349.50 331.53 L 337.00 338.75 L 337.00 353.19 Z" id="hex-253000" fill="rgb(61.96%,4.31%,5.88%)" fill-opacity="0.4" fill-rule="nonzero" stroke="rgb(0.00%,0.00%,0.00%)" stroke-opacity="0.8" stroke-linejoin="miter" stroke-linecap="butt" stroke-width="1.20" stroke-miterlimit="4.00" />
    <path d="M 384.38 371.54 L 449.31 333.05" id="link-253000-233000" fill="none" stroke-linejoin="miter" stroke-linecap="butt" stroke-miterlimit="4.00" />
    <path d="M 384.38 371.54 L 343.27 473.08" id="link-253000-237000" fill="none" stroke-linejoin="miter" stroke-linecap="butt" stroke-miterlimit="4.00" />
    <text x="384.38" y="391.14" font-size="10" id="name-253000">
      <tspan text-anchor="middle" stroke-miterlimit="1.56">Freyr</tspan>
    </text>
    <path d="M 524.50 461.47 L 512.00 468.69 L 499.50 461.47 L 499.50 447.03 L 487.00 439.81 L 474.50 447.03 L 474.50 461.47 L 462.00 468.69 L 462.00 483.12 L 449.50 490.34 L 449.50 504.78 L 462.00 512.00 L 462.00 526.44 L 449.50 533.66 L 449.50 548.09 L 462.00 555.31 L 474.50 548.09 L 487.00 555.31 L 499.50 548.09 L 512.00 555.31 L 524.50 548.09 L 537.00 555.31 L 549.50 548.09 L 549.50 533.66 L 537.00 526.44 L 537.00 512.00 L 549.50 504.78 L 549.50 490.34 L 537.00 483.12 L 537.00 468.69 Z" id="hex-254000" fill="rgb(61.96%,4.31%,5.88%)" fill-opacity="0.4" fill-rule="nonzero" stroke="rgb(0.00%,0.00%,0.00%)" stroke-opacity="0.8" stroke-linejoin="miter" stroke-linecap="butt" stroke-width="1.20" stroke-miterlimit="4.00" />
    <path d="M 501.88 503.16 L 519.51 421.61" id="link-254000-244610" fill="none" stroke-linejoin="miter" stroke-linecap="butt" stroke-miterlimit="4.00" />
    <path d="M 501.88 503.16 L 413.85 491.82" id="link-254000-246000" fill="none" stroke-linejoin="miter" stroke-linecap="butt" stroke-miterlimit="4.00" />
    <path d="M 501.88 503.16 L 585.84 484.46" id="link-254000-248000" fill="none" stroke-linejoin="miter" stroke-linecap="butt" stroke-miterlimit="4.00" />
    <path d="M 501.88 503.16 L 527.54 598.02" id="link-254000-249000" fill="none" stroke-linejoin="miter" stroke-linecap="butt" stroke-miterlimit="4.00" />
    <text x="501.88" y="522.76" font-size="10" id="name-254000">
      <tspan text-anchor="middle" stroke-miterlimit="1.56">Eisa</tspan>
    </text>
    <path d="M 762.12 569.75 L 762.12 555.31 L 774.62 548.09 L 787.12 555.31 L 799.62 548.09 L 812.12 555.31 L 824.62 548.09 L 824.62 533.66 L 812.12 526.44 L 812.12 512.00 L 799.62 504.78 L 799.62 490.34 L 787.12 483.12 L 787.12 468.69 L 774.62 461.47 L 774.62 447.03 L 762.12 439.81 L 749.50 447.03 L 737.00 439.81 L 724.50 447.03 L 724.50 461.47 L 712.00 468.69 L 712.00 483.12 L 724.50 490.34 L 724.50 504.78 L 712.00 512.00 L 712.00 526.44 L 724.50 533.66 L 724.50 548.09 L 712.00 555.31 L 712.00 569.75 L 724.50 576.97 L 737.00 569.75 L 749.50 576.97 Z" id="hex-256000" fill="rgb(61.96%,4.31%,5.88%)" fill-opacity="0.4" fill-rule="nonzero" stroke="rgb(0.00%,0.00%,0.00%)" stroke-opacity="0.8" stroke-linejoin="miter" stroke-linecap="butt" stroke-width="1.20" stroke-miterlimit="4.00" />
    <path d="M 757.54 517.02 L 747.45 397.57" id="link-256000-236000" fill="none" stroke-linejoin="miter" stroke-linecap="butt" stroke-miterlimit="4.00" />
    <path d="M 757.54 517.02 L 866.82 605.86" id="link-256000-242000" fill="none" stroke-linejoin="miter" stroke-linecap="butt" stroke-miterlimit="4.00" />
    <path d="M 757.54 517.02 L 680.50 473.16" id="link-256000-256030" fill="none" stroke-linejoin="miter" stroke-linecap="butt" stroke-miterlimit="4.00" />
    <path d="M 757.54 517.02 L 844.26 482.76" id="link-256000-260000" fill="none" stroke-linejoin="miter" stroke-linecap="butt" stroke-miterlimit="4.00" />
    <text x="757.54" y="528.74" font-size="5" id="name-256000">
      <tspan text-anchor="middle" stroke-miterlimit="1.56">Nott Communications</tspan>
    </text>
    <path d="M 749.50 764.66 L 737.00 771.88 L 737.00 786.31 L 724.50 793.53 L 724.50 807.97 L 737.00 815.19 L 749.50 807.97 L 762.12 815.19 L 774.62 807.97 L 787.12 815.19 L 799.62 807.97 L 812.12 815.19 L 824.62 807.97 L 824.62 793.53 L 837.12 786.31 L 837.12 771.88 L 849.62 764.66 L 849.62 750.22 L 837.12 743.00 L 824.62 750.22 L 812.12 743.00 L 812.12 728.56 L 799.62 721.34 L 799.62 706.91 L 787.12 699.69 L 774.62 706.91 L 762.12 699.69 L 749.50 706.91 L 749.50 721.34 L 737.00 728.56 L 737.00 743.00 L 749.50 750.22 Z" id="hex-257000" fill="rgb(61.96%,4.31%,5.88%)" fill-opacity="0.4" fill-rule="nonzero" stroke="rgb(0.00%,0.00%,0.00%)" stroke-opacity="0.8" stroke-linejoin="miter" stroke-linecap="butt" stroke-width="1.20" stroke-miterlimit="4.00" />
    <text x="778.92" y="767.97" font-size="5" id="name-257000">
      <tspan text-anchor="middle" stroke-miterlimit="1.56">Ymir</tspan>
    </text>
    <path d="M 312.00 179.94 L 299.50 187.16 L 287.00 179.94 L 274.50 187.16 L 261.88 179.94 L 249.38 187.16 L 236.88 179.94 L 224.38 187.16 L 211.88 179.94 L 199.38 187.16 L 186.88 179.94 L 174.38 187.16 L 174.38 201.59 L 161.88 208.81 L 161.88 223.25 L 149.38 230.47 L 149.38 244.91 L 136.88 252.12 L 136.88 266.56 L 149.38 273.78 L 149.38 288.22 L 161.88 295.44 L 174.38 288.22 L 186.88 295.44 L 199.38 288.22 L 211.88 295.44 L 224.38 288.22 L 236.88 295.44 L 249.38 288.22 L 261.88 295.44 L 274.50 288.22 L 287.00 295.44 L 299.50 288.22 L 299.50 273.78 L 312.00 266.56 L 312.00 252.12 L 324.50 244.91 L 324.50 230.47 L 337.00 223.25 L 337.00 208.81 L 349.50 201.59 L 349.50 187.16 L 337.00 179.94 L 324.50 187.16 Z" id="hex-258000" fill="rgb(61.96%,4.31%,5.88%)" fill-opacity="0.4" fill-rule="nonzero" stroke="rgb(0.00%,0.00%,0.00%)" stroke-opacity="0.8" stroke-linejoin="miter" stroke-linecap="butt" stroke-width="1.20" stroke-miterlimit="4.00" />
    <text x="213.34" y="250.27" font-size="10" id="name-258000">
      <tspan text-anchor="middle" stroke-miterlimit="1.56">Esamir Northern Warpgate</tspan>
    </text>
    <path d="M 399.50 880.16 L 412.00 872.94 L 412.00 858.50 L 424.50 851.28 L 424.50 836.84 L 437.00 829.62 L 437.00 815.19 L 424.50 807.97 L 412.00 815.19 L 399.50 807.97 L 387.00 815.19 L 374.50 807.97 L 374.50 793.53 L 362.00 786.31 L 362.00 771.88 L 349.50 764.66 L 349.50 750.22 L 337.00 743.00 L 324.50 750.22 L 312.00 743.00 L 299.50 750.22 L 287.00 743.00 L 274.50 750.22 L 261.88 743.00 L 249.38 750.22 L 236.88 743.00 L 224.38 750.22 L 211.88 743.00 L 199.38 750.22 L 186.88 743.00 L 174.38 750.22 L 161.88 743.00 L 149.38 750.22 L 149.38 764.66 L 161.88 771.88 L 161.88 786.31 L 174.38 793.53 L 174.38 807.97 L 186.88 815.19 L 186.88 829.62 L 199.38 836.84 L 199.38 851.28 L 211.88 858.50 L 211.88 872.94 L 224.38 880.16 L 224.38 894.59 L 236.88 901.81 L 249.38 894.59 L 261.88 901.81 L 274.50 894.59 L 287.00 901.81 L 299.50 894.59 L 312.00 901.81 L 324.50 894.59 L 337.00 901.81 L 349.50 894.59 L 362.00 901.81 L 374.50 894.59 L 387.00 901.81 L 399.50 894.59 Z" id="hex-259000" fill="rgb(61.96%,4.31%,5.88%)" fill-opacity="0.4" fill-rule="nonzero" stroke="rgb(0.00%,0.00%,0.00%)" stroke-opacity="0.8" stroke-linejoin="miter" stroke-linecap="butt" stroke-width="1.20" stroke-miterlimit="4.00" />
    <text x="262.10" y="830.00" font-size="10" id="name-259000">
      <tspan text-anchor="middle" stroke-miterlimit="1.56">Esamir Southern Warpgate</tspan>
    </text>
    <path d="M 587.00 526.44 L 574.50 533.66 L 562.00 526.44 L 549.50 533.66 L 549.50 548.09 L 537.00 555.31 L 537.00 569.75 L 549.50 576.97 L 549.50 591.41 L 562.00 598.62 L 574.50 591.41 L 587.00 598.62 L 599.50 591.41 L 599.50 576.97 L 612.00 569.75 L 612.00 555.31 L 624.50 548.09 L 624.50 533.66 L 612.00 526.44 L 599.50 533.66 Z" id="hex-244100" fill="rgb(61.96%,4.31%,5.88%)" fill-opacity="0.4" fill-rule="nonzero" stroke="rgb(0.00%,0.00%,0.00%)" stroke-opacity="0.8" stroke-linejoin="miter" stroke-linecap="butt" stroke-width="1.20" stroke-miterlimit="4.00" />
    <path d="M 577.54 554.87 L 585.84 484.46" id="link-244100-248000" fill="none" stroke-linejoin="miter" stroke-linecap="butt" stroke-miterlimit="4.00" />
    <path d="M 577.54 554.87 L 527.54 598.02" id="link-244100-249000" fill="none" stroke-linejoin="miter" stroke-linecap="butt" stroke-miterlimit="4.00" />
    <text x="577.54" y="566.59" font-size="5" id="name-244100">
      <tspan text-anchor="middle" stroke-miterlimit="1.56">Echo Valley Substation</tspan>
    </text>
    <path d="M 462.00 656.38 L 474.50 663.59 L 474.50 678.03 L 487.00 685.25 L 499.50 678.03 L 512.00 685.25 L 524.50 678.03 L 537.00 685.25 L 549.50 678.03 L 562.00 685.25 L 574.50 678.03 L 574.50 663.59 L 587.00 656.38 L 587.00 641.94 L 574.50 634.72 L 574.50 620.28 L 562.00 613.06 L 549.50 620.28 L 537.00 613.06 L 524.50 620.28 L 512.00 613.06 L 499.50 620.28 L 487.00 613.06 L 474.50 620.28 L 474.50 634.72 L 462.00 641.94 Z" id="hex-244200" fill="rgb(61.96%,4.31%,5.88%)" fill-opacity="0.4" fill-rule="nonzero" stroke="rgb(0.00%,0.00%,0.00%)" stroke-opacity="0.8" stroke-linejoin="miter" stroke-linecap="butt" stroke-width="1.20" stroke-miterlimit="4.00" />
    <path d="M 513.24 653.25 L 527.54 598.02" id="link-244200-249000" fill="none" stroke-linejoin="miter" stroke-linecap="butt" stroke-miterlimit="4.00" />
    <path d="M 513.24 653.25 L 542.37 728.37" id="link-244200-252010" fill="none" stroke-linejoin="miter" stroke-linecap="butt" stroke-miterlimit="4.00" />
    <text x="513.24" y="664.97" font-size="5" id="name-244200">
      <tspan text-anchor="middle" stroke-miterlimit="1.56">Bridge-ward</tspan>
    </text>
    <path d="M 374.50 721.34 L 387.00 728.56 L 399.50 721.34 L 412.00 728.56 L 424.50 721.34 L 437.00 728.56 L 449.50 721.34 L 449.50 706.91 L 462.00 699.69 L 462.00 685.25 L 474.50 678.03 L 474.50 663.59 L 462.00 656.38 L 449.50 663.59 L 437.00 656.38 L 424.50 663.59 L 412.00 656.38 L 399.50 663.59 L 387.00 656.38 L 387.00 641.94 L 374.50 634.72 L 362.00 641.94 L 349.50 634.72 L 337.00 641.94 L 337.00 656.38 L 324.50 663.59 L 324.50 678.03 L 312.00 685.25 L 312.00 699.69 L 299.50 706.91 L 299.50 721.34 L 287.00 728.56 L 287.00 743.00 L 299.50 750.22 L 312.00 743.00 L 324.50 750.22 L 337.00 743.00 L 349.50 750.22 L 362.00 743.00 L 362.00 728.56 Z" id="hex-244300" fill="rgb(61.96%,4.31%,5.88%)" fill-opacity="0.4" fill-rule="nonzero" stroke="rgb(0.00%,0.00%,0.00%)" stroke-opacity="0.8" stroke-linejoin="miter" stroke-linecap="butt" stroke-width="1.20" stroke-miterlimit="4.00" />
    <path d="M 394.56 695.87 L 262.10 810.40" id="link-244300-259000" fill="none" stroke-linejoin="miter" stroke-linecap="butt" stroke-miterlimit="4.00" />
    <text x="394.56" y="707.59" font-size="5" id="name-244300">
      <tspan text-anchor="middle" stroke-miterlimit="1.56">Frostbite Harbor</tspan>
    </text>
    <path d="M 149.38 620.28 L 149.38 634.72 L 161.88 641.94 L 161.88 656.38 L 174.38 663.59 L 174.38 678.03 L 186.88 685.25 L 199.38 678.03 L 211.88 685.25 L 224.38 678.03 L 236.88 685.25 L 249.38 678.03 L 261.88 685.25 L 274.50 678.03 L 287.00 685.25 L 299.50 678.03 L 312.00 685.25 L 324.50 678.03 L 324.50 663.59 L 337.00 656.38 L 337.00 641.94 L 349.50 634.72 L 349.50 620.28 L 337.00 613.06 L 324.50 620.28 L 312.00 613.06 L 299.50 620.28 L 287.00 613.06 L 287.00 598.62 L 274.50 591.41 L 261.88 598.62 L 249.38 591.41 L 249.38 576.97 L 236.88 569.75 L 224.38 576.97 L 224.38 591.41 L 211.88 598.62 L 199.38 591.41 L 186.88 598.62 L 174.38 591.41 L 161.88 598.62 L 149.38 591.41 L 136.88 598.62 L 136.88 613.06 Z" id="hex-244500" fill="rgb(61.96%,4.31%,5.88%)" fill-opacity="0.4" fill-rule="nonzero" stroke="rgb(0.00%,0.00%,0.00%)" stroke-opacity="0.8" stroke-linejoin="miter" stroke-linecap="butt" stroke-width="1.20" stroke-miterlimit="4.00" />
    <path d="M 240.08 616.95 L 217.47 555.65" id="link-244500-251030" fill="none" stroke-linejoin="miter" stroke-linecap="butt" stroke-miterlimit="4.00" />
    <path d="M 240.08 616.95 L 293.01 554.82" id="link-244500-400134" fill="none" stroke-linejoin="miter" stroke-linecap="butt" stroke-miterlimit="4.00" />
    <text x="240.08" y="628.67" font-size="5" id="name-244500">
      <tspan text-anchor="middle" stroke-miterlimit="1.56">Jaeger's Fist</tspan>
    </text>
    <path d="M 287.00 743.00 L 287.00 728.56 L 299.50 721.34 L 299.50 706.91 L 312.00 699.69 L 312.00 685.25 L 299.50 678.03 L 287.00 685.25 L 274.50 678.03 L 261.88 685.25 L 249.38 678.03 L 236.88 685.25 L 224.38 678.03 L 211.88 685.25 L 199.38 678.03 L 186.88 685.25 L 174.38 678.03 L 161.88 685.25 L 161.88 699.69 L 149.38 706.91 L 149.38 721.34 L 136.88 728.56 L 136.88 743.00 L 149.38 750.22 L 161.88 743.00 L 174.38 750.22 L 186.88 743.00 L 199.38 750.22 L 211.88 743.00 L 224.38 750.22 L 236.88 743.00 L 249.38 750.22 L 261.88 743.00 L 274.50 750.22 Z" id="hex-244600" fill="rgb(61.96%,4.31%,5.88%)" fill-opacity="0.4" fill-rule="nonzero" stroke="rgb(0.00%,0.00%,0.00%)" stroke-opacity="0.8" stroke-linejoin="miter" stroke-linecap="butt" stroke-width="1.20" stroke-miterlimit="4.00" />
    <path d="M 239.29 712.56 L 394.56 695.87" id="link-244600-244300" fill="none" stroke-linejoin="miter" stroke-linecap="butt" stroke-miterlimit="4.00" />
    <path d="M 239.29 712.56 L 240.08 616.95" id="link-244600-244500" fill="none" stroke-linejoin="miter" stroke-linecap="butt" stroke-miterlimit="4.00" />
    <path d="M 239.29 712.56 L 262.10 810.40" id="link-244600-259000" fill="none" stroke-linejoin="miter" stroke-linecap="butt" stroke-miterlimit="4.00" />
    <text x="239.29" y="724.28" font-size="5" id="name-244600">
      <tspan text-anchor="middle" stroke-miterlimit="1.56">Two Stone Beach</tspan>
    </text>
    <path d="M 699.50 663.59 L 699.50 678.03 L 712.00 685.25 L 712.00 699.69 L 724.50 706.91 L 737.00 699.69 L 749.50 706.91 L 762.12 699.69 L 774.62 706.91 L 787.12 699.69 L 787.12 685.25 L 799.62 678.03 L 799.62 663.59 L 787.12 656.38 L 787.12 641.94 L 774.62 634.72 L 774.62 620.28 L 762.12 613.06 L 749.50 620.28 L 749.50 634.72 L 737.00 641.94 L 724.50 634.72 L 712.00 641.94 L 699.50 634.72 L 687.00 641.94 L 687.00 656.38 Z" id="hex-260010" fill="rgb(61.96%,4.31%,5.88%)" fill-opacity="0.4" fill-rule="nonzero" stroke="rgb(0.00%,0.00%,0.00%)" stroke-opacity="0.8" stroke-linejoin="miter" stroke-linecap="butt" stroke-width="1.20" stroke-miterlimit="4.00" />
    <path d="M 749.24 659.67 L 649.28 693.83" id="link-260010-400328" fill="none" stroke-linejoin="miter" stroke-linecap="butt" stroke-miterlimit="4.00" />
    <text x="749.24" y="672.83" font-size="5" id="name-260010">
      <tspan text-anchor="middle" stroke-miterlimit="1.56">Terran BL-4 Crash Site</tspan>
    </text>
    <path d="M 174.38 418.16 L 161.88 425.38 L 149.38 418.16 L 136.88 425.38 L 136.88 439.81 L 124.38 447.03 L 124.38 461.47 L 136.88 468.69 L 149.38 461.47 L 161.88 468.69 L 174.38 461.47 L 186.88 468.69 L 199.38 461.47 L 211.88 468.69 L 224.38 461.47 L 236.88 468.69 L 236.88 483.12 L 249.38 490.34 L 261.88 483.12 L 274.50 490.34 L 287.00 483.12 L 287.00 468.69 L 299.50 461.47 L 299.50 447.03 L 287.00 439.81 L 274.50 447.03 L 261.88 439.81 L 261.88 425.38 L 249.38 418.16 L 236.88 425.38 L 224.38 418.16 L 211.88 425.38 L 199.38 418.16 L 186.88 425.38 Z" id="hex-251010" fill="rgb(61.96%,4.31%,5.88%)" fill-opacity="0.4" fill-rule="nonzero" stroke="rgb(0.00%,0.00%,0.00%)" stroke-opacity="0.8" stroke-linejoin="miter" stroke-linecap="butt" stroke-width="1.20" stroke-miterlimit="4.00" />
    <text x="214.45" y="466.41" font-size="5" id="name-251010">
      <tspan text-anchor="middle" stroke-miterlimit="1.56">Andvari Barracks</tspan>
    </text>
    <path d="M 149.38 576.97 L 149.38 591.41 L 161.88 598.62 L 174.38 591.41 L 186.88 598.62 L 199.38 591.41 L 211.88 598.62 L 224.38 591.41 L 224.38 576.97 L 236.88 569.75 L 249.38 576.97 L 261.88 569.75 L 261.88 555.31 L 249.38 548.09 L 249.38 533.66 L 236.88 526.44 L 224.38 533.66 L 211.88 526.44 L 199.38 533.66 L 186.88 526.44 L 174.38 533.66 L 161.88 526.44 L 149.38 533.66 L 136.88 526.44 L 124.38 533.66 L 124.38 548.09 L 136.88 555.31 L 136.88 569.75 Z" id="hex-251030" fill="rgb(61.96%,4.31%,5.88%)" fill-opacity="0.4" fill-rule="nonzero" stroke="rgb(0.00%,0.00%,0.00%)" stroke-opacity="0.8" stroke-linejoin="miter" stroke-linecap="butt" stroke-width="1.20" stroke-miterlimit="4.00" />
    <text x="217.47" y="567.37" font-size="5" id="name-251030">
      <tspan text-anchor="middle" stroke-miterlimit="1.56">Andvari South Bank</tspan>
    </text>
    <path d="M 587.00 685.25 L 574.50 678.03 L 562.00 685.25 L 549.50 678.03 L 537.00 685.25 L 524.50 678.03 L 512.00 685.25 L 512.00 699.69 L 499.50 706.91 L 499.50 721.34 L 512.00 728.56 L 512.00 743.00 L 499.50 750.22 L 499.50 764.66 L 487.00 771.88 L 487.00 786.31 L 499.50 793.53 L 512.00 786.31 L 524.50 793.53 L 537.00 786.31 L 549.50 793.53 L 562.00 786.31 L 562.00 771.88 L 574.50 764.66 L 574.50 750.22 L 562.00 743.00 L 562.00 728.56 L 574.50 721.34 L 574.50 706.91 L 587.00 699.69 Z" id="hex-252010" fill="rgb(61.96%,4.31%,5.88%)" fill-opacity="0.4" fill-rule="nonzero" stroke="rgb(0.00%,0.00%,0.00%)" stroke-opacity="0.8" stroke-linejoin="miter" stroke-linecap="butt" stroke-width="1.20" stroke-miterlimit="4.00" />
    <text x="542.37" y="740.09" font-size="5" id="name-252010">
      <tspan text-anchor="middle" stroke-miterlimit="1.56">Elli Tower</tspan>
    </text>
    <path d="M 524.50 244.91 L 537.00 252.12 L 549.50 244.91 L 549.50 230.47 L 537.00 223.25 L 537.00 208.81 L 524.50 201.59 L 524.50 187.16 L 512.00 179.94 L 512.00 165.50 L 499.50 158.28 L 487.00 165.50 L 474.50 158.28 L 462.00 165.50 L 449.50 158.28 L 437.00 165.50 L 437.00 179.94 L 449.50 187.16 L 449.50 201.59 L 462.00 208.81 L 462.00 223.25 L 474.50 230.47 L 474.50 244.91 L 487.00 252.12 L 499.50 244.91 L 512.00 252.12 Z" id="hex-255010" fill="rgb(61.96%,4.31%,5.88%)" fill-opacity="0.4" fill-rule="nonzero" stroke="rgb(0.00%,0.00%,0.00%)" stroke-opacity="0.8" stroke-linejoin="miter" stroke-linecap="butt" stroke-width="1.20" stroke-miterlimit="4.00" />
    <path d="M 485.52 209.97 L 550.07 189.72" id="link-255010-255020" fill="none" stroke-linejoin="miter" stroke-linecap="butt" stroke-miterlimit="4.00" />
    <text x="485.52" y="221.69" font-size="5" id="name-255010">
      <tspan text-anchor="middle" stroke-miterlimit="1.56">Steelshore Processing</tspan>
    </text>
    <path d="M 512.00 179.94 L 524.50 187.16 L 524.50 201.59 L 537.00 208.81 L 537.00 223.25 L 549.50 230.47 L 549.50 244.91 L 562.00 252.12 L 562.00 266.56 L 574.50 273.78 L 587.00 266.56 L 599.50 273.78 L 612.00 266.56 L 612.00 252.12 L 599.50 244.91 L 599.50 230.47 L 612.00 223.25 L 612.00 208.81 L 599.50 201.59 L 599.50 187.16 L 587.00 179.94 L 587.00 165.50 L 574.50 158.28 L 562.00 165.50 L 549.50 158.28 L 537.00 165.50 L 524.50 158.28 L 512.00 165.50 Z" id="hex-255020" fill="rgb(61.96%,4.31%,5.88%)" fill-opacity="0.4" fill-rule="nonzero" stroke="rgb(0.00%,0.00%,0.00%)" stroke-opacity="0.8" stroke-linejoin="miter" stroke-linecap="butt" stroke-width="1.20" stroke-miterlimit="4.00" />
    <path d="M 550.07 189.72 L 652.24 185.46" id="link-255020-247000" fill="none" stroke-linejoin="miter" stroke-linecap="butt" stroke-miterlimit="4.00" />
    <text x="550.07" y="201.44" font-size="5" id="name-255020">
      <tspan text-anchor="middle" stroke-miterlimit="1.56">Steelshore Reconstruction</tspan>
    </text>
    <path d="M 537.00 309.88 L 549.50 317.09 L 562.00 309.88 L 562.00 295.44 L 549.50 288.22 L 549.50 273.78 L 562.00 266.56 L 562.00 252.12 L 549.50 244.91 L 537.00 252.12 L 524.50 244.91 L 512.00 252.12 L 499.50 244.91 L 487.00 252.12 L 474.50 244.91 L 462.00 252.12 L 462.00 266.56 L 474.50 273.78 L 474.50 288.22 L 487.00 295.44 L 487.00 309.88 L 499.50 317.09 L 512.00 309.88 L 524.50 317.09 Z" id="hex-255030" fill="rgb(61.96%,4.31%,5.88%)" fill-opacity="0.4" fill-rule="nonzero" stroke="rgb(0.00%,0.00%,0.00%)" stroke-opacity="0.8" stroke-linejoin="miter" stroke-linecap="butt" stroke-width="1.20" stroke-miterlimit="4.00" />
    <path d="M 506.63 279.40 L 449.31 333.05" id="link-255030-233000" fill="none" stroke-linejoin="miter" stroke-linecap="butt" stroke-miterlimit="4.00" />
    <path d="M 506.63 279.40 L 550.07 189.72" id="link-255030-255020" fill="none" stroke-linejoin="miter" stroke-linecap="butt" stroke-miterlimit="4.00" />
    <text x="506.63" y="291.12" font-size="5" id="name-255030">
      <tspan text-anchor="middle" stroke-miterlimit="1.56">Esper Research Station</tspan>
    </text>
    <path d="M 824.62 533.66 L 824.62 548.09 L 837.12 555.31 L 849.62 548.09 L 862.12 555.31 L 874.62 548.09 L 874.62 533.66 L 862.12 526.44 L 862.12 512.00 L 874.62 504.78 L 874.62 490.34 L 887.12 483.12 L 887.12 468.69 L 874.62 461.47 L 874.62 447.03 L 862.12 439.81 L 862.12 425.38 L 849.62 418.16 L 837.12 425.38 L 824.62 418.16 L 812.12 425.38 L 799.62 418.16 L 787.12 425.38 L 787.12 439.81 L 774.62 447.03 L 774.62 461.47 L 787.12 468.69 L 787.12 483.12 L 799.62 490.34 L 799.62 504.78 L 812.12 512.00 L 812.12 526.44 Z" id="hex-260000" fill="rgb(61.96%,4.31%,5.88%)" fill-opacity="0.4" fill-rule="nonzero" stroke="rgb(0.00%,0.00%,0.00%)" stroke-opacity="0.8" stroke-linejoin="miter" stroke-linecap="butt" stroke-width="1.20" stroke-miterlimit="4.00" />
    <path d="M 844.26 482.76 L 747.45 397.57" id="link-260000-236000" fill="none" stroke-linejoin="miter" stroke-linecap="butt" stroke-miterlimit="4.00" />
    <path d="M 844.26 482.76 L 866.82 605.86" id="link-260000-242000" fill="none" stroke-linejoin="miter" stroke-linecap="butt" stroke-miterlimit="4.00" />
    <text x="844.26" y="502.36" font-size="10" id="name-260000">
      <tspan text-anchor="middle" stroke-miterlimit="1.56">Esamir Eastern Warpgate</tspan>
    </text>
    <path d="M 687.00 526.44 L 699.50 533.66 L 712.00 526.44 L 712.00 512.00 L 724.50 504.78 L 724.50 490.34 L 712.00 483.12 L 712.00 468.69 L 724.50 461.47 L 724.50 447.03 L 712.00 439.81 L 699.50 447.03 L 687.00 439.81 L 674.50 447.03 L 662.00 439.81 L 649.50 447.03 L 649.50 461.47 L 637.00 468.69 L 624.50 461.47 L 612.00 468.69 L 612.00 483.12 L 624.50 490.34 L 624.50 504.78 L 637.00 512.00 L 637.00 526.44 L 649.50 533.66 L 662.00 526.44 L 674.50 533.66 Z" id="hex-256030" fill="rgb(61.96%,4.31%,5.88%)" fill-opacity="0.4" fill-rule="nonzero" stroke="rgb(0.00%,0.00%,0.00%)" stroke-opacity="0.8" stroke-linejoin="miter" stroke-linecap="butt" stroke-width="1.20" stroke-miterlimit="4.00" />
    <path d="M 680.50 473.16 L 585.84 484.46" id="link-256030-248000" fill="none" stroke-linejoin="miter" stroke-linecap="butt" stroke-miterlimit="4.00" />
    <text x="680.50" y="484.88" font-size="5" id="name-256030">
      <tspan text-anchor="middle" stroke-miterlimit="1.56">Genudine Gardens</tspan>
    </text>
    <path d="M 549.50 447.03 L 562.00 439.81 L 562.00 425.38 L 549.50 418.16 L 549.50 403.72 L 537.00 396.50 L 537.00 382.06 L 524.50 374.84 L 524.50 360.41 L 512.00 353.19 L 499.50 360.41 L 487.00 353.19 L 474.50 360.41 L 474.50 374.84 L 462.00 382.06 L 462.00 396.50 L 474.50 403.72 L 474.50 418.16 L 487.00 425.38 L 487.00 439.81 L 499.50 447.03 L 499.50 461.47 L 512.00 468.69 L 524.50 461.47 L 537.00 468.69 L 549.50 461.47 Z" id="hex-244610" fill="rgb(61.96%,4.31%,5.88%)" fill-opacity="0.4" fill-rule="nonzero" stroke="rgb(0.00%,0.00%,0.00%)" stroke-opacity="0.8" stroke-linejoin="miter" stroke-linecap="butt" stroke-width="1.20" stroke-miterlimit="4.00" />
    <path d="M 519.51 421.61 L 449.31 333.05" id="link-244610-233000" fill="none" stroke-linejoin="miter" stroke-linecap="butt" stroke-miterlimit="4.00" />
    <path d="M 519.51 421.61 L 563.23 374.59" id="link-244610-234000" fill="none" stroke-linejoin="miter" stroke-linecap="butt" stroke-miterlimit="4.00" />
    <text x="519.51" y="433.33" font-size="5" id="name-244610">
      <tspan text-anchor="middle" stroke-miterlimit="1.56">Rime Analytics</tspan>
    </text>
    <path d="M 637.00 468.69 L 649.50 461.47 L 649.50 447.03 L 662.00 439.81 L 674.50 447.03 L 687.00 439.81 L 699.50 447.03 L 712.00 439.81 L 712.00 425.38 L 699.50 418.16 L 699.50 403.72 L 687.00 396.50 L 687.00 382.06 L 674.50 374.84 L 662.00 382.06 L 649.50 374.84 L 649.50 360.41 L 637.00 353.19 L 624.50 360.41 L 624.50 374.84 L 612.00 382.06 L 612.00 396.50 L 599.50 403.72 L 599.50 418.16 L 587.00 425.38 L 587.00 439.81 L 599.50 447.03 L 599.50 461.47 L 612.00 468.69 L 624.50 461.47 Z" id="hex-244620" fill="rgb(61.96%,4.31%,5.88%)" fill-opacity="0.4" fill-rule="nonzero" stroke="rgb(0.00%,0.00%,0.00%)" stroke-opacity="0.8" stroke-linejoin="miter" stroke-linecap="butt" stroke-width="1.20" stroke-miterlimit="4.00" />
    <path d="M 635.27 422.49 L 747.45 397.57" id="link-244620-236000" fill="none" stroke-linejoin="miter" stroke-linecap="butt" stroke-miterlimit="4.00" />
    <path d="M 635.27 422.49 L 585.84 484.46" id="link-244620-248000" fill="none" stroke-linejoin="miter" stroke-linecap="butt" stroke-miterlimit="4.00" />
    <text x="635.27" y="434.21" font-size="5" id="name-244620">
      <tspan text-anchor="middle" stroke-miterlimit="1.56">The Rink</tspan>
    </text>
    <path d="M 749.50 634.72 L 749.50 620.28 L 762.12 613.06 L 774.62 620.28 L 787.12 613.06 L 787.12 598.62 L 774.62 591.41 L 774.62 576.97 L 762.12 569.75 L 749.50 576.97 L 737.00 569.75 L 724.50 576.97 L 712.00 569.75 L 699.50 576.97 L 699.50 591.41 L 687.00 598.62 L 687.00 613.06 L 674.50 620.28 L 674.50 634.72 L 687.00 641.94 L 699.50 634.72 L 712.00 641.94 L 724.50 634.72 L 737.00 641.94 Z" id="hex-400133" fill="rgb(61.96%,4.31%,5.88%)" fill-opacity="0.4" fill-rule="nonzero" stroke="rgb(0.00%,0.00%,0.00%)" stroke-opacity="0.8" stroke-linejoin="miter" stroke-linecap="butt" stroke-width="1.20" stroke-miterlimit="4.00" />
    <path d="M 720.87 598.79 L 749.24 659.67" id="link-400133-260010" fill="none" stroke-linejoin="miter" stroke-linecap="butt" stroke-miterlimit="4.00" />
    <text x="720.87" y="610.51" font-size="5" id="name-400133">
      <tspan text-anchor="middle" stroke-miterlimit="1.56">BL-4 Recovery Point</tspan>
    </text>
    <path d="M 261.88 512.00 L 261.88 526.44 L 249.38 533.66 L 249.38 548.09 L 261.88 555.31 L 261.88 569.75 L 249.38 576.97 L 249.38 591.41 L 261.88 598.62 L 274.50 591.41 L 287.00 598.62 L 287.00 613.06 L 299.50 620.28 L 312.00 613.06 L 324.50 620.28 L 337.00 613.06 L 349.50 620.28 L 362.00 613.06 L 362.00 598.62 L 349.50 591.41 L 349.50 576.97 L 337.00 569.75 L 337.00 555.31 L 349.50 548.09 L 349.50 533.66 L 337.00 526.44 L 337.00 512.00 L 324.50 504.78 L 312.00 512.00 L 299.50 504.78 L 299.50 490.34 L 287.00 483.12 L 274.50 490.34 L 261.88 483.12 L 249.38 490.34 L 249.38 504.78 Z" id="hex-400134" fill="rgb(61.96%,4.31%,5.88%)" fill-opacity="0.4" fill-rule="nonzero" stroke="rgb(0.00%,0.00%,0.00%)" stroke-opacity="0.8" stroke-linejoin="miter" stroke-linecap="butt" stroke-width="1.20" stroke-miterlimit="4.00" />
    <path d="M 293.01 554.82 L 378.01 571.72" id="link-400134-239000" fill="none" stroke-linejoin="miter" stroke-linecap="butt" stroke-miterlimit="4.00" />
    <text x="293.01" y="566.54" font-size="5" id="name-400134">
      <tspan text-anchor="middle" stroke-miterlimit="1.56">Tapp Waystation</tspan>
    </text>
    <path d="M 474.50 403.72 L 462.00 396.50 L 449.50 403.72 L 437.00 396.50 L 424.50 403.72 L 424.50 418.16 L 412.00 425.38 L 412.00 439.81 L 424.50 447.03 L 424.50 461.47 L 437.00 468.69 L 449.50 461.47 L 462.00 468.69 L 474.50 461.47 L 474.50 447.03 L 487.00 439.81 L 487.00 425.38 L 474.50 418.16 Z" id="hex-400135" fill="rgb(61.96%,4.31%,5.88%)" fill-opacity="0.4" fill-rule="nonzero" stroke="rgb(0.00%,0.00%,0.00%)" stroke-opacity="0.8" stroke-linejoin="miter" stroke-linecap="butt" stroke-width="1.20" stroke-miterlimit="4.00" />
    <path d="M 461.01 417.36 L 519.51 421.61" id="link-400135-244610" fill="none" stroke-linejoin="miter" stroke-linecap="butt" stroke-miterlimit="4.00" />
    <path d="M 461.01 417.36 L 413.85 491.82" id="link-400135-246000" fill="none" stroke-linejoin="miter" stroke-linecap="butt" stroke-miterlimit="4.00" />
    <text x="461.01" y="429.08" font-size="5" id="name-400135">
      <tspan text-anchor="middle" stroke-miterlimit="1.56">Untapped Reservoir</tspan>
    </text>
    <path d="M 462.00 555.31 L 449.50 548.09 L 437.00 555.31 L 437.00 569.75 L 424.50 576.97 L 424.50 591.41 L 412.00 598.62 L 412.00 613.06 L 399.50 620.28 L 399.50 634.72 L 387.00 641.94 L 387.00 656.38 L 399.50 663.59 L 412.00 656.38 L 424.50 663.59 L 437.00 656.38 L 449.50 663.59 L 462.00 656.38 L 462.00 641.94 L 474.50 634.72 L 474.50 620.28 L 487.00 613.06 L 487.00 598.62 L 474.50 591.41 L 474.50 576.97 L 462.00 569.75 Z" id="hex-400314" fill="rgb(61.96%,4.31%,5.88%)" fill-opacity="0.4" fill-rule="nonzero" stroke="rgb(0.00%,0.00%,0.00%)" stroke-opacity="0.8" stroke-linejoin="miter" stroke-linecap="butt" stroke-width="1.20" stroke-miterlimit="4.00" />
    <path d="M 442.04 617.42 L 378.01 571.72" id="link-400314-239000" fill="none" stroke-linejoin="miter" stroke-linecap="butt" stroke-miterlimit="4.00" />
    <path d="M 442.04 617.42 L 394.56 695.87" id="link-400314-244300" fill="none" stroke-linejoin="miter" stroke-linecap="butt" stroke-miterlimit="4.00" />
    <path d="M 442.04 617.42 L 527.54 598.02" id="link-400314-249000" fill="none" stroke-linejoin="miter" stroke-linecap="butt" stroke-miterlimit="4.00" />
    <text x="442.04" y="637.02" font-size="10" id="name-400314">
      <tspan text-anchor="middle" stroke-miterlimit="1.56">Baldur</tspan>
    </text>
    <path d="M 824.62 374.84 L 824.62 360.41 L 837.12 353.19 L 837.12 338.75 L 849.62 331.53 L 849.62 317.09 L 837.12 309.88 L 824.62 317.09 L 812.12 309.88 L 799.62 317.09 L 787.12 309.88 L 774.62 317.09 L 762.12 309.88 L 749.50 317.09 L 737.00 309.88 L 724.50 317.09 L 724.50 331.53 L 712.00 338.75 L 699.50 331.53 L 687.00 338.75 L 687.00 353.19 L 674.50 360.41 L 662.00 353.19 L 649.50 360.41 L 649.50 374.84 L 662.00 382.06 L 674.50 374.84 L 687.00 382.06 L 699.50 374.84 L 712.00 382.06 L 724.50 374.84 L 737.00 382.06 L 749.50 374.84 L 762.12 382.06 L 774.62 374.84 L 787.12 382.06 L 799.62 374.84 L 812.12 382.06 Z" id="hex-400315" fill="rgb(61.96%,4.31%,5.88%)" fill-opacity="0.4" fill-rule="nonzero" stroke="rgb(0.00%,0.00%,0.00%)" stroke-opacity="0.8" stroke-linejoin="miter" stroke-linecap="butt" stroke-width="1.20" stroke-miterlimit="4.00" />
    <path d="M 784.00 344.24 L 747.45 397.57" id="link-400315-236000" fill="none" stroke-linejoin="miter" stroke-linecap="butt" stroke-miterlimit="4.00" />
    <text x="784.00" y="355.96" font-size="5" id="name-400315">
      <tspan text-anchor="middle" stroke-miterlimit="1.56">Vidar Observation Site</tspan>
    </text>
    <path d="M 637.00 771.88 L 637.00 786.31 L 649.50 793.53 L 662.00 786.31 L 674.50 793.53 L 674.50 807.97 L 687.00 815.19 L 699.50 807.97 L 712.00 815.19 L 724.50 807.97 L 724.50 793.53 L 737.00 786.31 L 737.00 771.88 L 749.50 764.66 L 749.50 750.22 L 737.00 743.00 L 737.00 728.56 L 749.50 721.34 L 749.50 706.91 L 737.00 699.69 L 724.50 706.91 L 712.00 699.69 L 699.50 706.91 L 699.50 721.34 L 687.00 728.56 L 674.50 721.34 L 662.00 728.56 L 649.50 721.34 L 637.00 728.56 L 637.00 743.00 L 649.50 750.22 L 649.50 764.66 Z" id="hex-400327" fill="rgb(61.96%,4.31%,5.88%)" fill-opacity="0.4" fill-rule="nonzero" stroke="rgb(0.00%,0.00%,0.00%)" stroke-opacity="0.8" stroke-linejoin="miter" stroke-linecap="butt" stroke-width="1.20" stroke-miterlimit="4.00" />
    <path d="M 706.54 767.88 L 593.12 750.04" id="link-400327-243000" fill="none" stroke-linejoin="miter" stroke-linecap="butt" stroke-miterlimit="4.00" />
    <path d="M 706.54 767.88 L 778.92 756.25" id="link-400327-257000" fill="none" stroke-linejoin="miter" stroke-linecap="butt" stroke-miterlimit="4.00" />
    <path d="M 706.54 767.88 L 749.24 659.67" id="link-400327-260010" fill="none" stroke-linejoin="miter" stroke-linecap="butt" stroke-miterlimit="4.00" />
    <text x="706.54" y="787.48" font-size="10" id="name-400327">
      <tspan text-anchor="middle" stroke-miterlimit="1.56">Ymir Containment Site</tspan>
    </text>
    <path d="M 587.00 613.06 L 574.50 620.28 L 574.50 634.72 L 587.00 641.94 L 599.50 634.72 L 612.00 641.94 L 624.50 634.72 L 637.00 641.94 L 649.50 634.72 L 662.00 641.94 L 674.50 634.72 L 674.50 620.28 L 687.00 613.06 L 687.00 598.62 L 699.50 591.41 L 699.50 576.97 L 712.00 569.75 L 712.00 555.31 L 724.50 548.09 L 724.50 533.66 L 712.00 526.44 L 699.50 533.66 L 687.00 526.44 L 674.50 533.66 L 662.00 526.44 L 649.50 533.66 L 637.00 526.44 L 624.50 533.66 L 624.50 548.09 L 612.00 555.31 L 612.00 569.75 L 599.50 576.97 L 599.50 591.41 L 587.00 598.62 Z" id="hex-400317" fill="rgb(61.96%,4.31%,5.88%)" fill-opacity="0.4" fill-rule="nonzero" stroke="rgb(0.00%,0.00%,0.00%)" stroke-opacity="0.8" stroke-linejoin="miter" stroke-linecap="butt" stroke-width="1.20" stroke-miterlimit="4.00" />
    <path d="M 655.79 567.03 L 577.54 554.87" id="link-400317-244100" fill="none" stroke-linejoin="miter" stroke-linecap="butt" stroke-miterlimit="4.00" />
    <path d="M 655.79 567.03 L 720.87 598.79" id="link-400317-400133" fill="none" stroke-linejoin="miter" stroke-linecap="butt" stroke-miterlimit="4.00" />
    <text x="655.79" y="586.63" font-size="10" id="name-400317">
      <tspan text-anchor="middle" stroke-miterlimit="1.56">Jord</tspan>
    </text>
    <path d="M 662.00 641.94 L 649.50 634.72 L 637.00 641.94 L 624.50 634.72 L 612.00 641.94 L 599.50 634.72 L 587.00 641.94 L 587.00 656.38 L 574.50 663.59 L 574.50 678.03 L 587.00 685.25 L 587.00 699.69 L 599.50 706.91 L 612.00 699.69 L 624.50 706.91 L 624.50 721.34 L 637.00 728.56 L 649.50 721.34 L 662.00 728.56 L 674.50 721.34 L 687.00 728.56 L 699.50 721.34 L 699.50 706.91 L 712.00 699.69 L 712.00 685.25 L 699.50 678.03 L 699.50 663.59 L 687.00 656.38 L 687.00 641.94 L 674.50 634.72 Z" id="hex-400328" fill="rgb(61.96%,4.31%,5.88%)" fill-opacity="0.4" fill-rule="nonzero" stroke="rgb(0.00%,0.00%,0.00%)" stroke-opacity="0.8" stroke-linejoin="miter" stroke-linecap="butt" stroke-width="1.20" stroke-miterlimit="4.00" />
    <text x="649.28" y="705.55" font-size="5" id="name-400328">
      <tspan text-anchor="middle" stroke-miterlimit="1.56">Spral Oasis</tspan>
    </text>
  </defs>
</svg>