<?xml version="1.0" encoding="UTF-8"?>
<svg xmlns="http://www.w3.org/2000/svg" xmlns:xlink="http://www.w3.org/1999/xlink" width="100pt" height="100pt" viewBox="0 0 100 100" version="1.1">
<g id="surface6">
<path style="fill-rule:nonzero;fill:rgb(0%,0%,0%);fill-opacity:1;stroke-width:5;stroke-linecap:butt;stroke-linejoin:miter;stroke:rgb(100%,100%,100%);stroke-opacity:1;stroke-miterlimit:10;" d="M 97.5 50 C 97.5 73.230469 80.699219 93.054688 57.78125 96.859375 C 34.863281 100.664062 12.558594 87.335938 5.050781 65.351562 C -2.457031 43.367188 7.035156 19.179688 27.492188 8.171875 C 47.949219 -2.835938 73.367188 2.566406 87.578125 20.945312 C 101.789062 39.324219 100.621094 65.28125 84.816406 82.308594 C 69.015625 99.339844 43.214844 102.4375 23.828125 89.640625 C 4.441406 76.839844 -2.84375 51.898438 6.609375 30.675781 C 16.058594 9.453125 39.472656 -1.816406 61.957031 4.027344 C 84.4375 9.875 99.394531 31.125 97.308594 54.261719 C 95.222656 77.402344 76.710938 95.632812 53.542969 97.367188 C 30.378906 99.101562 9.355469 83.824219 3.851562 61.253906 C -1.652344 38.683594 9.976562 15.445312 31.339844 6.320312 C 52.699219 -2.808594 77.53125 4.855469 90.035156 24.433594 C 102.535156 44.015625 99.042969 69.765625 81.777344 85.304688 C 64.511719 100.847656 38.535156 101.617188 20.375 87.132812 C 2.21875 72.644531 -2.800781 47.148438 8.519531 26.859375 C 19.835938 6.570312 44.164062 -2.554688 66.035156 5.289062 C 87.902344 13.128906 100.886719 35.636719 96.734375 58.492188 C 92.582031 81.347656 72.503906 97.847656 49.277344 97.496094 C 26.050781 97.140625 6.484375 80.039062 3.027344 57.066406 C -0.425781 34.09375 13.238281 11.992188 35.335938 4.820312 C 57.429688 -2.351562 81.472656 7.507812 92.167969 28.132812 C 102.863281 48.753906 97.070312 74.085938 78.480469 88.015625 C 59.886719 101.945312 33.949219 100.382812 17.164062 84.324219 C 0.378906 68.261719 -2.332031 42.417969 10.761719 23.230469 C 23.855469 4.039062 48.90625 -2.863281 69.980469 6.90625 C 91.058594 16.679688 101.972656 40.261719 95.785156 62.652344 C 89.59375 85.042969 68.121094 99.675781 45.015625 97.238281 C 21.914062 94.800781 3.964844 76.011719 2.582031 52.824219 C 1.203125 29.632812 16.796875 8.847656 39.449219 3.6875 C 62.097656 -1.472656 85.160156 10.503906 93.960938 32.003906 C 102.761719 53.503906 94.71875 78.214844 74.953125 90.417969 C 55.1875 102.621094 29.492188 98.738281 14.214844 81.238281 C -1.0625 63.734375 -1.4375 37.753906 13.324219 19.816406 C 28.085938 1.878906 53.65625 -2.75 73.769531 8.875 C 93.882812 20.5 102.636719 44.964844 94.464844 66.710938 C 86.289062 88.457031 63.589844 101.101562 40.796875 96.601562 C 18.007812 92.097656 1.816406 71.773438 2.523438 48.554688 C 3.230469 25.335938 20.625 6.03125 43.648438 2.925781 C 66.671875 -0.179688 88.5625 13.820312 95.398438 36.023438 C 102.234375 58.226562 92.007812 82.113281 71.222656 92.496094 C 50.441406 102.875 25.199219 96.699219 11.554688 77.898438 C -2.089844 59.097656 -0.132812 33.183594 16.179688 16.644531 C 32.492188 0.105469 58.375 -2.207031 77.363281 11.175781 C 96.351562 24.558594 102.875 49.710938 92.785156 70.636719 C 82.691406 91.558594 58.945312 102.113281 36.652344 95.585938 C 14.355469 89.058594 0.0546875 67.363281 2.84375 44.300781 C 5.632812 21.238281 24.691406 3.574219 47.898438 2.546875 C 71.105469 1.519531 91.652344 17.429688 96.46875 40.15625 C 101.285156 62.878906 88.953125 85.753906 67.324219 94.226562 C 45.695312 102.699219 21.109375 94.285156 9.207031 74.335938 C -2.695312 54.382812 1.582031 28.753906 19.3125 13.746094 C 37.042969 -1.265625 63.027344 -1.246094 80.738281 13.789062 C 98.449219 28.820312 102.6875 54.457031 90.757812 74.390625 C 78.828125 94.324219 54.234375 102.707031 32.613281 94.203125 C 10.996094 85.699219 -1.300781 62.808594 3.546875 40.089844 C 8.390625 17.371094 28.960938 1.488281 52.167969 2.550781 C 75.375 3.609375 94.410156 21.296875 97.164062 44.363281 C 99.921875 67.433594 85.589844 89.109375 63.285156 95.605469 C 40.980469 102.101562 17.25 91.511719 7.1875 70.574219 C -2.875 49.636719 3.683594 24.492188 22.691406 11.136719 C 41.695312 -2.21875 67.574219 0.128906 83.867188 16.691406 C 100.15625 33.253906 102.074219 59.167969 88.40625 77.953125 C 74.734375 96.734375 49.484375 102.875 28.714844 92.464844 C 7.949219 82.054688 -2.242188 58.152344 4.621094 35.960938 C 11.488281 13.765625 33.398438 -0.203125 56.417969 2.933594 C 79.433594 6.074219 96.804688 25.402344 97.480469 48.621094 C 98.152344 71.84375 81.933594 92.144531 59.136719 96.613281 C 36.339844 101.082031 13.65625 88.40625 5.511719 66.648438 C -2.628906 44.894531 6.160156 20.4375 26.289062 8.839844 C 46.417969 -2.753906 71.980469 1.910156 86.71875 19.867188 C 101.457031 37.824219 101.042969 63.804688 85.742188 81.285156 C 70.441406 98.765625 44.742188 102.613281 24.992188 90.382812 C 5.242188 78.152344 -2.765625 53.429688 6.066406 31.945312 C 14.898438 10.457031 37.972656 -1.492188 60.617188 3.703125 C 83.257812 8.894531 98.824219 29.699219 97.410156 52.886719 C 96 76.078125 78.023438 94.839844 54.917969 97.246094 C 31.8125 99.648438 10.355469 84.988281 4.199219 62.589844 C -1.957031 40.1875 8.988281 16.621094 30.078125 6.878906 C 51.167969 -2.863281 76.207031 4.074219 89.273438 23.285156 C 102.339844 42.492188 99.597656 68.332031 82.789062 84.367188 C 65.980469 100.402344 40.039062 101.929688 21.46875 87.976562 C 2.894531 74.019531 -2.859375 48.679688 7.863281 28.074219 C 18.585938 7.464844 42.644531 -2.363281 64.730469 4.839844 C 86.8125 12.042969 100.449219 34.164062 96.960938 57.132812 C 93.472656 80.101562 73.882812 97.175781 50.65625 97.496094 C 27.429688 97.816406 7.375 81.289062 3.253906 58.425781 C -0.867188 35.566406 12.152344 13.078125 34.027344 5.265625 C 55.90625 -2.546875 80.226562 6.613281 91.515625 26.917969 C 102.804688 47.21875 97.75 72.710938 79.570312 87.171875 C 61.390625 101.632812 35.417969 100.824219 18.171875 85.261719 C 0.929688 69.695312 -2.527344 43.941406 10.003906 24.378906 C 22.53125 4.816406 47.371094 -2.8125 68.722656 6.34375 C 90.074219 15.503906 101.667969 38.757812 96.132812 61.320312 C 90.597656 83.878906 69.554688 99.128906 46.390625 97.363281 C 23.226562 95.597656 4.738281 77.335938 2.6875 54.199219 C 0.632812 31.058594 15.617188 9.828125 38.109375 4.011719 C 60.601562 -1.804688 83.996094 9.503906 93.417969 30.738281 C 102.839844 51.972656 95.519531 76.90625 76.117188 89.675781 C 56.710938 102.449219 30.914062 99.3125 15.136719 82.261719 C -0.640625 65.210938 -1.773438 39.25 12.464844 20.894531 C 26.699219 2.535156 52.125 -2.832031 72.566406 8.203125 C 93.007812 19.238281 102.46875 43.441406 94.929688 65.414062 C 87.390625 87.386719 65.066406 100.683594 42.152344 96.847656 C 19.242188 93.011719 2.46875 73.164062 2.5 49.933594 C 2.53125 26.703125 19.363281 6.902344 42.285156 3.128906 C 65.207031 -0.640625 87.496094 12.71875 94.972656 34.710938 C 102.449219 56.707031 92.921875 80.882812 72.449219 91.859375 C 51.976562 102.839844 26.566406 97.398438 12.382812 79.003906 C -1.800781 60.605469 -0.597656 34.648438 15.226562 17.640625 C 31.054688 0.632812 56.855469 -2.429688 76.226562 10.394531 C 95.59375 23.222656 102.84375 48.175781 93.363281 69.382812 C 83.882812 90.59375 60.457031 101.832031 37.980469 95.953125 C 15.507812 90.074219 0.582031 68.804688 2.699219 45.671875 C 4.816406 22.535156 23.355469 4.328125 46.523438 2.628906 C 69.691406 0.925781 90.691406 16.234375 96.164062 38.808594 C 101.636719 61.386719 89.976562 84.609375 68.601562 93.707031 C 47.226562 102.804688 22.40625 95.105469 9.929688 75.507812 C -2.542969 55.914062 0.984375 30.167969 18.273438 14.652344 C 35.558594 -0.867188 61.535156 -1.601562 79.675781 12.910156 C 97.8125 27.421875 102.796875 52.925781 91.449219 73.199219 C 80.105469 93.46875 55.761719 102.5625 33.90625 94.691406 C 12.046875 86.816406 -0.90625 64.292969 3.277344 41.441406 C 7.460938 18.589844 27.5625 2.121094 50.789062 2.507812 C 74.015625 2.890625 93.558594 20.023438 96.980469 43 C 100.40625 65.976562 86.707031 88.058594 64.601562 95.199219 C 42.496094 102.339844 18.46875 92.445312 7.804688 71.808594 C -2.863281 51.171875 2.960938 25.847656 21.574219 11.945312 C 40.183594 -1.957031 66.121094 -0.359375 82.882812 15.722656 C 99.648438 31.804688 102.320312 57.652344 89.199219 76.824219 C 76.082031 95.996094 51.019531 102.867188 29.957031 93.066406 C 8.898438 83.261719 -1.984375 59.664062 4.234375 37.28125 C 10.453125 14.898438 31.949219 0.300781 55.046875 2.769531 C 78.148438 5.238281 96.070312 24.050781 97.421875 47.242188 C 98.769531 70.433594 83.144531 91.199219 60.488281 96.328125 C 37.828125 101.457031 14.785156 89.445312 6.015625 67.933594 C -2.753906 46.421875 5.320312 21.722656 25.105469 9.546875 C 44.886719 -2.628906 70.574219 1.292969 85.828125 18.8125 C 101.082031 36.335938 101.421875 62.320312 86.632812 80.234375 C 71.847656 98.152344 46.269531 102.746094 26.171875 91.09375 C 6.078125 79.4375 -2.644531 54.960938 5.558594 33.226562 C 13.761719 11.492188 36.484375 -1.121094 59.269531 3.414062 C 82.050781 7.945312 98.214844 28.292969 97.476562 51.511719 C 96.738281 74.730469 79.3125 94.007812 56.285156 97.082031 C 33.257812 100.15625 11.386719 86.125 4.582031 63.914062 C -2.222656 41.703125 8.039062 17.828125 28.835938 7.476562 C 49.632812 -2.875 74.863281 3.335938 88.484375 22.15625 C 102.101562 40.976562 100.109375 66.886719 83.773438 83.402344 C 67.4375 99.917969 41.550781 102.195312 22.582031 88.789062 C 3.613281 75.378906 -2.875 50.214844 7.246094 29.304688 C 17.367188 8.394531 41.125 -2.125 63.410156 4.433594 C 85.695312 10.992188 99.96875 32.707031 97.148438 55.765625 C 94.328125 78.824219 75.242188 96.460938 52.035156 97.457031 C 28.824219 98.453125 8.300781 82.511719 3.519531 59.78125 C -1.265625 37.046875 11.09375 14.191406 32.738281 5.746094 C 54.378906 -2.695312 78.953125 5.753906 90.828125 25.722656 C 102.699219 45.6875 98.390625 71.316406 80.636719 86.296875 C 62.886719 101.28125 36.898438 101.226562 19.210938 86.167969 C 1.519531 71.113281 -2.683594 45.46875 9.273438 25.550781 C 21.230469 5.632812 45.839844 -2.710938 67.449219 5.820312 C 89.054688 14.355469 101.320312 37.261719 96.441406 59.976562 C 91.5625 82.6875 70.972656 98.539062 47.765625 97.449219 C 24.5625 96.355469 5.550781 78.640625 2.828125 55.570312 C 0.105469 32.5 14.464844 10.84375 36.777344 4.378906 C 59.089844 -2.089844 82.808594 8.53125 92.839844 29.484375 C 102.875 50.4375 96.28125 75.570312 77.257812 88.902344 C 58.230469 102.230469 32.355469 99.84375 16.089844 83.261719 C -0.179688 66.675781 -2.0625 40.757812 11.632812 21.996094 C 25.332031 3.230469 50.589844 -2.875 71.34375 7.566406 C 92.097656 18.003906 102.253906 41.921875 95.359375 64.101562 C 88.460938 86.285156 66.53125 100.226562 43.515625 97.054688 C 20.503906 93.886719 3.160156 74.535156 2.519531 51.3125 C 1.875 28.089844 18.125 7.8125 40.925781 3.375 C 63.730469 -1.0625 86.398438 11.644531 94.507812 33.414062 C 102.621094 55.179688 93.800781 79.621094 73.652344 91.191406 C 53.507812 102.761719 27.953125 98.058594 13.238281 80.082031 C -1.472656 62.105469 -1.023438 36.121094 14.300781 18.664062 C 29.628906 1.207031 55.332031 -2.605469 75.066406 9.652344 C 94.796875 21.910156 102.769531 46.644531 93.910156 68.117188 C 85.046875 89.59375 61.957031 101.507812 39.320312 96.285156 C 16.683594 91.058594 1.148438 70.230469 2.59375 47.046875 C 4.035156 23.859375 22.039062 5.121094 45.148438 2.75 C 68.257812 0.375 89.691406 15.066406 95.820312 37.476562 C 101.945312 59.882812 90.964844 83.433594 69.863281 93.148438 C 48.757812 102.863281 23.726562 95.886719 10.6875 76.660156 C -2.351562 57.433594 0.429688 31.597656 17.257812 15.585938 C 34.089844 -0.425781 60.03125 -1.914062 78.585938 12.066406 C 97.140625 26.046875 102.859375 51.394531 92.105469 71.984375 C 81.351562 92.578125 57.285156 102.371094 35.207031 95.136719 C 13.132812 87.902344 -0.472656 65.765625 3.046875 42.800781 C 6.570312 19.839844 26.179688 2.792969 49.410156 2.503906 C 72.640625 2.214844 92.667969 18.769531 96.757812 41.636719 C 100.847656 64.503906 87.796875 86.976562 65.910156 94.757812 C 44.019531 102.535156 19.714844 93.34375 8.453125 73.023438 C -2.808594 52.707031 2.28125 27.222656 20.480469 12.785156 C 38.679688 -1.652344 64.652344 -0.804688 81.875 14.785156 C 99.097656 30.371094 102.519531 56.132812 89.960938 75.675781 C 77.40625 95.21875 52.554688 102.816406 31.214844 93.628906 C 9.878906 84.441406 -1.683594 61.171875 3.882812 38.617188 C 9.453125 16.0625 30.515625 0.84375 53.675781 2.640625 C 76.835938 4.441406 95.300781 22.726562 97.320312 45.867188 C 99.339844 69.011719 84.324219 90.21875 61.828125 96.003906 C 39.328125 101.789062 15.945312 90.449219 6.554688 69.203125 C -2.835938 47.957031 4.519531 23.03125 23.941406 10.285156 C 43.363281 -2.457031 69.152344 0.714844 84.90625 17.785156 C 100.664062 34.859375 101.757812 60.820312 87.496094 79.160156 C 73.234375 97.496094 47.804688 102.832031 27.375 91.765625 C 6.949219 80.703125 -2.476562 56.488281 5.09375 34.523438 C 12.660156 12.558594 35.003906 -0.707031 57.910156 3.164062 C 80.816406 7.03125 97.566406 26.902344 97.5 50.132812 C 97.433594 73.363281 80.578125 93.136719 57.648438 96.878906 C 34.722656 100.621094 12.453125 87.230469 5.007812 65.226562 C -2.441406 43.222656 7.121094 19.058594 27.609375 8.109375 C 48.097656 -2.84375 73.5 2.632812 87.660156 21.050781 C 101.816406 39.46875 100.578125 65.421875 84.726562 82.40625 C 68.878906 99.390625 43.070312 102.421875 23.71875 89.566406 C 4.367188 76.714844 -2.847656 51.75 6.664062 30.554688 C 16.171875 9.359375 39.617188 -1.847656 62.082031 4.0625 C 84.550781 9.972656 99.445312 31.265625 97.296875 54.394531 C 95.144531 77.527344 76.582031 95.710938 53.410156 97.378906 C 30.242188 99.046875 9.261719 83.710938 3.820312 61.125 C -1.621094 38.542969 10.070312 15.335938 31.460938 6.265625 C 52.847656 -2.800781 77.65625 4.933594 90.105469 24.546875 C 102.554688 44.160156 98.988281 69.902344 81.679688 85.394531 C 64.367188 100.886719 38.390625 101.585938 20.273438 87.046875 C 2.152344 72.511719 -2.792969 47 8.582031 26.742188 C 19.957031 6.488281 44.3125 -2.570312 66.15625 5.332031 C 88.003906 13.234375 100.929688 35.777344 96.710938 58.621094 C 92.492188 81.46875 72.371094 97.910156 49.144531 97.492188 C 25.917969 97.074219 6.402344 79.917969 3.007812 56.9375 C -0.382812 33.953125 13.34375 11.890625 35.460938 4.78125 C 57.574219 -2.332031 81.589844 7.597656 92.226562 28.25 C 102.863281 48.902344 97.003906 74.21875 78.375 88.09375 C 59.742188 101.972656 33.808594 100.335938 17.066406 84.230469 C 0.328125 68.125 -2.308594 42.273438 10.835938 23.121094 C 23.984375 3.964844 49.054688 -2.867188 70.101562 6.964844 C 91.148438 16.792969 102 40.40625 95.75 62.78125 C 89.496094 85.15625 67.980469 99.726562 44.886719 97.222656 C 21.789062 94.722656 3.890625 75.882812 2.578125 52.691406 C 1.261719 29.496094 16.914062 8.753906 39.578125 3.65625 C 62.242188 -1.441406 85.269531 10.605469 94.007812 32.128906 C 102.75 53.652344 94.640625 78.339844 74.839844 90.488281 C 55.039062 102.636719 29.355469 98.679688 14.128906 81.136719 C -1.097656 63.59375 -1.402344 37.609375 13.40625 19.714844 C 28.21875 1.816406 53.804688 -2.738281 73.882812 8.941406 C 93.964844 20.621094 102.648438 45.113281 94.417969 66.835938 C 86.183594 88.558594 63.445312 101.136719 40.667969 96.574219 C 17.890625 92.011719 1.753906 71.640625 2.527344 48.421875 C 3.296875 25.203125 20.75 5.953125 43.78125 2.910156 C 66.808594 -0.132812 88.664062 13.929688 95.4375 36.148438 C 102.210938 58.371094 91.917969 82.230469 71.105469 92.554688 C 50.292969 102.875 25.070312 96.628906 11.476562 77.789062 C -2.113281 58.953125 -0.0859375 33.046875 16.273438 16.550781 C 32.632812 0.0585938 58.523438 -2.183594 77.472656 11.25 C 96.421875 24.6875 102.875 49.859375 92.726562 70.753906 C 82.574219 91.648438 58.800781 102.140625 36.523438 95.546875 "/>
</g>
</svg>
